<?xml version="1.0" encoding="UTF-8" standalone="no"?>
<svg
   xmlns:dc="http://purl.org/dc/elements/1.1/"
   xmlns:cc="http://creativecommons.org/ns#"
   xmlns:rdf="http://www.w3.org/1999/02/22-rdf-syntax-ns#"
   xmlns:svg="http://www.w3.org/2000/svg"
   xmlns="http://www.w3.org/2000/svg"
   xmlns:sodipodi="http://sodipodi.sourceforge.net/DTD/sodipodi-0.dtd"
   xmlns:inkscape="http://www.inkscape.org/namespaces/inkscape"
   viewBox="0 0 77.75 77.781"
   id="svg2"
   version="1.1"
   inkscape:version="0.48.4 r9939"
   width="100%"
   height="100%"
   sodipodi:docname="instagram_gray.svg">
  <metadata
     id="metadata18">
    <rdf:RDF>
      <cc:Work
         rdf:about="">
        <dc:format>image/svg+xml</dc:format>
        <dc:type
           rdf:resource="http://purl.org/dc/dcmitype/StillImage" />
        <dc:title></dc:title>
      </cc:Work>
    </rdf:RDF>
  </metadata>
  <defs
     id="defs16" />
  <sodipodi:namedview
     pagecolor="#ffffff"
     bordercolor="#666666"
     borderopacity="1"
     objecttolerance="10"
     gridtolerance="10"
     guidetolerance="10"
     inkscape:pageopacity="0"
     inkscape:pageshadow="2"
     inkscape:window-width="1366"
     inkscape:window-height="656"
     id="namedview14"
     showgrid="false"
     inkscape:zoom="3.03416"
     inkscape:cx="-10.891657"
     inkscape:cy="53.596622"
     inkscape:window-x="0"
     inkscape:window-y="30"
     inkscape:window-maximized="1"
     inkscape:current-layer="g4" />
  <g
     fill="#808284"
     transform="translate(-588.0873,-540.77411)"
     stroke="#808284"
     id="g4"
     style="fill:#ffffff">
    <g
       stroke-linejoin="bevel"
       transform="translate(-1568.3502,-554.16339)"
       stroke="#808284"
       stroke-linecap="square"
       stroke-miterlimit="10"
       stroke-width="2"
       fill="#808284"
       id="g6"
       style="fill:#ffffff;stroke:#ffffff;stroke-opacity:1">
      <path
         d="m2195.3,1122.3c5.824,0,10.531,4.717,10.531,10.523,0,5.817-4.707,10.527-10.531,10.527-5.809,0-10.514-4.71-10.514-10.527,0-5.806,4.705-10.523,10.514-10.523z"
         id="path8"
         style="fill:#ffffff;stroke:#ffffff;stroke-opacity:1" />
      <path
         d="m2214.3,1095.9h-36.892v19.758h-4.144v-19.479c-1.441,0.243-2.828,0.632-4.148,1.178v18.302h-4.135v-15.894c-4.563,3.461-7.52,8.911-7.52,15.08v5.551h25.52c3.174-3.155,7.543-5.11,12.361-5.11,4.838,0,9.209,1.955,12.375,5.11h25.518v-5.551c0-10.457-8.484-18.945-18.935-18.945zm8.455,17.913c0,1.179-0.955,2.131-2.131,2.131h-6.38c-1.181,0-2.131-0.952-2.131-2.131v-6.379c0-1.186,0.95-2.14,2.131-2.14h6.38c1.176,0,2.131,0.954,2.131,2.14v6.379z"
         id="path10"
         style="fill:#ffffff;stroke:#ffffff;stroke-opacity:1" />
      <path
         d="m2212.8,1132.9c0,9.69-7.85,17.538-17.539,17.538-9.673,0-17.52-7.848-17.52-17.538,0-2.183,0.41-4.279,1.141-6.21h-21.502v26.122c0,10.462,8.486,18.938,18.941,18.938h37.896c10.451,0,18.936-8.476,18.936-18.938v-26.122h-21.508c0.745,1.931,1.155,4.028,1.155,6.21z"
         id="path12"
         style="fill:#ffffff;stroke:#ffffff;stroke-opacity:1" />
    </g>
  </g>
</svg>
