<?xml version="1.0" encoding="UTF-8" standalone="no"?>
<!-- Created with Inkscape (http://www.inkscape.org/) -->

<svg
   xmlns:dc="http://purl.org/dc/elements/1.1/"
   xmlns:cc="http://creativecommons.org/ns#"
   xmlns:rdf="http://www.w3.org/1999/02/22-rdf-syntax-ns#"
   xmlns:svg="http://www.w3.org/2000/svg"
   xmlns="http://www.w3.org/2000/svg"
   xmlns:sodipodi="http://sodipodi.sourceforge.net/DTD/sodipodi-0.dtd"
   xmlns:inkscape="http://www.inkscape.org/namespaces/inkscape"
   width="237.70399"
   height="391.77301"
   id="svg3930"
   version="1.1"
   inkscape:version="0.48.4 r9939"
   sodipodi:docname="logo.svg">
  <defs
     id="defs3932" />
  <sodipodi:namedview
     id="base"
     pagecolor="#ffffff"
     bordercolor="#666666"
     borderopacity="1.0"
     inkscape:pageopacity="0.0"
     inkscape:pageshadow="2"
     inkscape:zoom="0.35"
     inkscape:cx="210.99486"
     inkscape:cy="227.31499"
     inkscape:document-units="px"
     inkscape:current-layer="layer1"
     showgrid="false"
     inkscape:window-width="1366"
     inkscape:window-height="713"
     inkscape:window-x="0"
     inkscape:window-y="30"
     inkscape:window-maximized="1"
     fit-margin-top="0"
     fit-margin-left="0"
     fit-margin-right="0"
     fit-margin-bottom="0" />
  <metadata
     id="metadata3935">
    <rdf:RDF>
      <cc:Work
         rdf:about="">
        <dc:format>image/svg+xml</dc:format>
        <dc:type
           rdf:resource="http://purl.org/dc/dcmitype/StillImage" />
        <dc:title></dc:title>
      </cc:Work>
    </rdf:RDF>
  </metadata>
  <g
     inkscape:label="Layer 1"
     inkscape:groupmode="layer"
     id="layer1"
     transform="translate(-164.00514,-367.90425)">
    <g
       id="g5"
       transform="translate(-312.41686,142.84625)"
       inkscape:export-filename="/home/akshat/logo.svg.png"
       inkscape:export-xdpi="90"
       inkscape:export-ydpi="90">
      <polygon
         points="527.931,295.97 537.032,295.97 537.032,288.364 537.032,288.322 "
         id="polygon7"
         style="fill:none" />
      <polygon
         points="499.803,272.779 490.706,280.415 499.803,280.415 499.803,272.817 "
         id="polygon9"
         style="fill:none" />
      <polygon
         points="527.926,288.196 537.032,288.196 537.032,280.592 537.032,280.549 "
         id="polygon11"
         style="fill:none" />
      <polygon
         points="527.931,303.748 537.032,303.748 537.032,296.143 537.032,296.101 "
         id="polygon13"
         style="fill:none" />
      <polygon
         points="527.926,311.522 537.032,311.522 537.032,303.92 537.032,303.873 "
         id="polygon15"
         style="fill:none" />
      <polygon
         points="490.505,296.104 481.403,303.748 490.505,303.748 490.505,296.143 "
         id="polygon17"
         style="fill:none" />
      <polygon
         points="490.505,265.004 481.403,272.642 490.505,272.642 490.505,265.04 "
         id="polygon19"
         style="fill:none" />
      <polygon
         points="490.505,280.554 481.4,288.196 490.505,288.196 490.505,280.592 "
         id="polygon21"
         style="fill:none" />
      <polygon
         points="527.931,319.295 537.032,319.295 537.032,311.693 537.032,311.655 "
         id="polygon23"
         style="fill:none" />
      <polygon
         points="490.505,272.775 481.403,280.415 490.505,280.415 490.505,272.817 "
         id="polygon25"
         style="fill:none" />
      <polygon
         points="490.505,288.326 481.403,295.97 490.505,295.97 490.505,288.364 "
         id="polygon27"
         style="fill:none" />
      <polygon
         points="499.803,296.104 490.706,303.748 499.803,303.748 499.803,296.143 "
         id="polygon29"
         style="fill:none" />
      <polygon
         points="499.803,303.883 490.706,311.522 499.803,311.522 499.803,303.92 "
         id="polygon31"
         style="fill:none" />
      <path
         d="m 561.824,498.876 h 21.721 c 0.094,-0.011 3.097,-0.186 7.185,-1.226 l 17.233,23.045 2.514,-1.883 -16.519,-22.108 c 9.021,-3.007 20.635,-10.143 20.635,-26.95 0,-29.14 -29.513,-29.477 -29.812,-29.477 h -26.103 v 79.472 h 2.756 l 0.391,-0.332 v -20.541 z m 0,-55.448 h 22.956 c 1.091,0 26.663,0.3 26.663,26.326 0,24.321 -26.897,25.92 -27.97,25.966 h -21.649 v -52.292 z"
         id="path33"
         inkscape:connector-curvature="0"
         style="fill:none" />
      <polygon
         points="499.803,288.33 490.706,295.97 499.803,295.97 499.803,288.364 "
         id="polygon35"
         style="fill:none" />
      <polygon
         points="499.803,280.554 490.706,288.196 499.803,288.196 499.803,280.592 "
         id="polygon37"
         style="fill:none" />
      <polygon
         points="518.417,327.072 518.417,319.429 509.316,327.072 "
         id="polygon39"
         style="fill:none" />
      <path
         d="m 599.34,485.363 c 4.29,-3.833 6.441,-9.154 6.441,-15.957 0,-4.78 -1.089,-8.802 -3.208,-12.094 -0.204,-0.089 -0.405,-0.184 -0.614,-0.278 l 0.288,-0.247 c -0.288,-0.405 -0.604,-0.799 -0.925,-1.188 l -0.916,0.806 c -0.441,-0.169 -0.924,-0.306 -1.402,-0.447 l 1.488,-1.305 c -0.354,-0.362 -0.695,-0.72 -1.068,-1.056 l -2.173,1.887 c -0.505,-0.115 -0.998,-0.236 -1.524,-0.342 l 2.683,-2.34 c -0.405,-0.305 -0.819,-0.604 -1.269,-0.883 l -3.346,2.917 c -0.551,-0.078 -1.086,-0.162 -1.665,-0.23 l 3.854,-3.354 c -0.468,-0.253 -0.973,-0.478 -1.478,-0.699 l -4.464,3.892 c -0.591,-0.043 -1.19,-0.074 -1.812,-0.095 l 4.979,-4.343 c -0.536,-0.195 -1.106,-0.364 -1.678,-0.532 l -5.521,4.816 c -0.139,0 -0.273,-0.011 -0.412,-0.011 h -1.491 l 5.962,-5.204 c -0.591,-0.143 -1.186,-0.285 -1.818,-0.411 l -6.434,5.615 H 579.9 l 6.729,-5.862 c -0.65,-0.1 -1.297,-0.194 -1.983,-0.263 l -7.023,6.125 h -1.468 v 1.278 l -7.399,6.456 v 1.992 l 7.399,-6.451 v 1.667 l -7.399,6.457 v 1.997 l 7.399,-6.456 v 1.672 l -7.399,6.457 v 1.997 l 7.399,-6.457 v 1.668 l -7.399,6.462 v 1.997 l 7.399,-6.467 v 1.678 l -7.399,6.456 v 1.997 l 7.399,-6.462 v 1.684 l -7.399,6.451 v 1.993 l 7.399,-6.451 v 1.666 l -7.399,6.456 v 1.998 l 7.399,-6.461 v 1.677 l -7.399,6.456 v 1.993 l 7.399,-6.456 v 1.678 l -7.126,6.218 h 2.279 l 4.847,-4.226 v 1.671 l -2.931,2.555 h 4.979 c 9.787,-10e-4 16.835,-1.919 21.137,-5.757 z"
         id="path41"
         inkscape:connector-curvature="0"
         style="fill:none" />
      <polygon
         points="527.721,319.429 518.617,327.072 527.721,327.072 527.721,319.467 "
         id="polygon43"
         style="fill:none" />
      <polygon
         points="527.931,327.072 537.032,327.072 537.032,319.467 537.032,319.425 "
         id="polygon45"
         style="fill:none" />
      <polygon
         points="499.803,311.655 490.706,319.295 499.803,319.295 499.803,311.693 "
         id="polygon47"
         style="fill:none" />
      <polygon
         points="509.111,327.072 509.111,319.429 500.013,327.072 "
         id="polygon49"
         style="fill:none" />
      <polygon
         points="527.721,319.295 527.721,311.693 527.721,311.522 527.721,303.92 527.721,303.748 527.721,296.143 527.721,295.97 527.721,288.364 527.721,288.196 527.721,280.592 527.721,280.415 527.721,272.817 527.721,272.642 527.721,265.04 527.721,265.008 518.417,272.817 518.417,265.04 518.417,265.008 509.111,272.817 509.111,272.779 500.013,280.415 509.274,280.415 500.007,288.196 509.274,288.196 500.013,295.97 509.274,295.97 500.013,303.748 509.274,303.748 500.007,311.522 509.274,311.522 500.013,319.295 509.111,319.295 509.274,319.295 518.417,319.295 518.577,319.295 "
         id="polygon51"
         style="fill:none" />
      <polygon
         points="546.341,311.522 546.341,303.92 546.341,303.877 537.234,311.522 "
         id="polygon53"
         style="fill:none" />
      <polygon
         points="546.341,280.415 546.341,272.817 546.341,272.775 537.237,280.415 "
         id="polygon55"
         style="fill:none" />
      <polygon
         points="546.341,288.196 546.341,280.592 546.341,280.554 537.234,288.196 "
         id="polygon57"
         style="fill:none" />
      <polygon
         points="546.341,303.748 546.341,296.143 546.341,296.104 537.237,303.748 "
         id="polygon59"
         style="fill:none" />
      <polygon
         points="546.341,295.97 546.341,288.364 546.341,288.326 537.237,295.97 "
         id="polygon61"
         style="fill:none" />
      <polygon
         points="537.032,272.642 537.032,265.04 537.032,265.004 527.931,272.642 "
         id="polygon63"
         style="fill:none" />
      <polygon
         points="527.721,264.872 527.721,257.271 527.721,257.229 518.617,264.872 "
         id="polygon65"
         style="fill:none" />
      <path
         d="m 519.977,437.48 -30.287,83.698 c 0.423,0.841 2.111,1.551 2.111,1.551 l 30.718,-85.111 c -1.694,-0.847 -2.542,-0.138 -2.542,-0.138 z"
         id="path67"
         inkscape:connector-curvature="0"
         style="fill:none" />
      <path
         d="m 586.957,387.735 c 2.087,0.983 4.815,1.488 8.165,1.488 l 10.29,0.431 10.284,-0.431 c 3.443,0 6.235,-0.468 8.298,-1.393 2.045,-0.956 3.075,-2.585 3.075,-4.94 0,-2.158 -1.052,-3.718 -3.149,-4.715 -2.119,-0.993 -4.842,-1.458 -8.224,-1.458 l -10.284,-0.429 -10.29,0.429 c -3.281,0 -5.968,0.499 -8.098,1.53 -2.086,1.021 -3.151,2.618 -3.151,4.78 0,2.185 1.033,3.747 3.084,4.708 z"
         id="path69"
         inkscape:connector-curvature="0"
         style="fill:none" />
      <path
         d="m 542.366,357.844 c -3.748,0 -6.604,2.749 -8.528,8.231 -1.927,5.501 -2.889,11.808 -2.889,18.938 0,8.885 0.996,16.084 2.986,21.523 1.961,5.444 5.108,8.164 9.425,8.164 2.623,0 4.345,-1.229 5.178,-3.688 0.865,-2.419 1.294,-5.9 1.294,-10.384 v -35.322 c -0.368,-2.623 -1.162,-4.513 -2.324,-5.711 -1.164,-1.157 -2.887,-1.751 -5.142,-1.751 z"
         id="path71"
         inkscape:connector-curvature="0"
         style="fill:none" />
      <polygon
         points="527.931,334.85 537.032,334.85 537.032,327.244 537.032,327.198 "
         id="polygon73"
         style="fill:none" />
      <path
         d="m 602.852,500.273 4.485,-3.911 c -1.672,0.994 -3.438,1.908 -5.384,2.702 l -0.058,0.053 0.957,1.156 z"
         id="path75"
         inkscape:connector-curvature="0"
         style="fill:none" />
      <polygon
         points="499.803,327.206 490.706,334.85 499.803,334.85 499.803,327.244 "
         id="polygon77"
         style="fill:none" />
      <polygon
         points="490.505,311.655 481.403,319.295 490.505,319.295 490.505,311.693 "
         id="polygon79"
         style="fill:none" />
      <polygon
         points="509.111,327.206 500.013,334.85 509.111,334.85 509.111,327.244 "
         id="polygon81"
         style="fill:none" />
      <polygon
         points="490.505,319.425 481.403,327.072 490.505,327.072 490.505,319.467 "
         id="polygon83"
         style="fill:none" />
      <polygon
         points="490.505,327.203 481.403,334.85 490.505,334.85 490.505,327.244 "
         id="polygon85"
         style="fill:none" />
      <polygon
         points="546.341,319.295 546.341,311.693 546.341,311.655 537.237,319.295 "
         id="polygon87"
         style="fill:none" />
      <polygon
         points="490.505,303.877 481.4,311.522 490.505,311.522 490.505,303.92 "
         id="polygon89"
         style="fill:none" />
      <polygon
         points="518.417,327.206 509.316,334.85 518.417,334.85 518.417,327.244 "
         id="polygon91"
         style="fill:none" />
      <polygon
         points="527.721,327.206 518.617,334.85 527.721,334.85 527.721,327.244 "
         id="polygon93"
         style="fill:none" />
      <polygon
         points="499.803,319.429 490.706,327.072 499.803,327.072 499.803,319.467 "
         id="polygon95"
         style="fill:none" />
      <polygon
         points="509.111,257.271 509.111,257.229 500.007,264.872 509.111,264.872 "
         id="polygon97"
         style="fill:none" />
      <polygon
         points="499.803,257.271 499.803,257.229 490.706,264.872 499.803,264.872 "
         id="polygon99"
         style="fill:none" />
      <polygon
         points="546.341,327.072 546.341,319.467 546.341,319.425 537.237,327.072 "
         id="polygon101"
         style="fill:none" />
      <polygon
         points="490.505,257.225 481.4,264.872 490.505,264.872 490.505,257.271 "
         id="polygon103"
         style="fill:none" />
      <polygon
         points="518.417,257.271 518.417,257.229 509.316,264.872 518.417,264.872 "
         id="polygon105"
         style="fill:none" />
      <polygon
         points="537.032,272.817 537.032,272.775 527.931,280.415 537.032,280.415 "
         id="polygon107"
         style="fill:none" />
      <polygon
         points="499.803,265.008 490.706,272.642 499.803,272.642 499.803,265.04 "
         id="polygon109"
         style="fill:none" />
      <polygon
         points="527.926,264.872 537.032,264.872 537.032,257.221 "
         id="polygon111"
         style="fill:none" />
      <polygon
         points="518.628,257.095 527.721,257.095 527.721,249.455 "
         id="polygon113"
         style="fill:none" />
      <polygon
         points="509.327,257.095 518.417,257.095 518.417,249.455 "
         id="polygon115"
         style="fill:none" />
      <polygon
         points="500.018,257.095 509.111,257.095 509.111,249.455 "
         id="polygon117"
         style="fill:none" />
      <polygon
         points="537.237,272.642 546.341,272.642 546.341,265.004 "
         id="polygon119"
         style="fill:none" />
      <polygon
         points="490.712,257.095 499.803,257.095 499.803,249.455 "
         id="polygon121"
         style="fill:none" />
      <rect
         x="583.76599"
         y="265.828"
         width="31.615"
         height="17.281"
         id="rect123"
         style="fill:none" />
      <path
         d="m 703.263,316.969 c 0.086,-0.599 0.127,-1.164 0.127,-1.643 0,-8.85 -7.008,-16.146 -20.831,-21.698 -0.909,-0.368 -1.834,-0.738 -2.76,-1.102 -10.873,-4.301 -22.066,-8.733 -25.012,-18.732 -0.025,0.336 -0.03,0.658 -0.03,0.978 0,10.115 9.037,18.488 25.457,23.579 13.286,4.099 21.009,10.353 23.049,18.618 z"
         id="path125"
         inkscape:connector-curvature="0"
         style="fill:none" />
      <polygon
         points="481.403,257.095 490.505,257.095 490.505,249.451 "
         id="polygon127"
         style="fill:none" />
      <polygon
         points="509.111,265.04 509.111,265.008 500.013,272.642 509.111,272.642 "
         id="polygon129"
         style="fill:none" />
      <polygon
         points="487.103,225.058 479.873,225.058 479.873,226.847 482.424,226.847 482.424,240.421 484.553,240.421 484.553,226.847 487.103,226.847 "
         id="polygon131"
         style="fill:#ffffff" />
      <polygon
         points="499.989,225.058 497.865,225.058 497.865,231.653 495.031,231.653 495.031,225.058 492.902,225.058 492.902,240.421 495.031,240.421 495.031,233.442 497.865,233.442 497.865,240.421 499.989,240.421 "
         id="polygon133"
         style="fill:#ffffff" />
      <polygon
         points="512.024,231.653 508.575,231.653 508.575,226.847 512.234,226.847 512.234,225.058 506.451,225.058 506.451,240.421 512.234,240.421 512.234,238.632 508.575,238.632 508.575,233.442 512.024,233.442 "
         id="polygon135"
         style="fill:#ffffff" />
      <path
         d="m 483.521,406.398 c -3.338,9.488 0.526,17.049 5.447,20.037 2.992,1.762 6.683,2.639 9.843,2.639 8.791,-0.179 17.227,-8.791 21.622,-17.935 l -1.938,-0.872 c -2.629,5.619 -7.029,11.064 -11.777,14.059 -4.214,1.94 -7.029,-1.058 -5.797,-5.271 1.933,-5.98 4.917,-14.067 7.027,-20.04 3.693,-10.719 3.693,-19.331 -1.406,-24.431 -7.029,-6.852 -18.1,-4.22 -21.444,-0.525 -0.52,0.525 0.532,1.404 0.881,1.054 4.044,-2.636 8.797,1.231 6.502,7.556 -2.282,5.804 -5.793,14.938 -8.96,23.729 z"
         id="path137"
         inkscape:connector-curvature="0"
         style="fill:#ffffff" />
      <path
         d="m 515.379,358.133 c 0,-5.191 -4.277,-9.462 -9.659,-9.462 -5.197,0 -9.461,4.271 -9.461,9.462 0,5.386 4.264,9.651 9.461,9.651 5.382,0 9.659,-4.265 9.659,-9.651 z"
         id="path139"
         inkscape:connector-curvature="0"
         style="fill:#ffffff" />
      <path
         d="m 703.306,513.318 c -3.938,0 -7.177,3.238 -7.177,7.183 0,4.085 3.239,7.324 7.177,7.324 4.08,0 7.324,-3.239 7.324,-7.324 0,-3.944 -3.244,-7.183 -7.324,-7.183 z"
         id="path141"
         inkscape:connector-curvature="0"
         style="fill:#ffffff" />
      <path
         d="m 698.175,436.394 c -4.449,14.91 -22.352,53.512 -26.1,57.676 -1.798,2.004 -4.027,5.669 -6.871,6.22 -2.825,0.536 -3.098,-3.349 -2.882,-5.341 1.492,-14.117 12.035,-25.242 13.843,-39.302 0.584,-4.549 0.179,-9.059 -1.424,-13.386 -1.572,-4.275 -6.494,-7.714 -11.163,-7.461 -7.334,0.399 -12.355,5.289 -15.788,11.241 -3.98,6.882 -7.125,17.486 -8.013,21.041 -0.242,0.999 -0.82,2.887 0.819,3.187 0.947,0.169 2.035,-1.178 2.503,-1.819 1.788,-2.429 2.382,-8.586 5.884,-14.868 2.581,-4.648 4.269,-7.509 7.103,-10.358 4.59,-4.616 9.575,-4.758 8.833,0.421 -1.851,12.949 -10.558,23.565 -13.78,36.104 -0.909,3.564 -1.367,7.25 -1.173,10.93 0.279,5.348 2.24,12.178 7.841,14.212 2.102,0.763 3.91,1.142 5.521,1.142 4.668,0 9.022,-2.396 12.934,-7.119 1.65,-1.998 3.164,-4.496 5.03,-6.193 0.147,30.468 -21.166,31.835 -26.713,31.608 1.808,-1.813 7.687,-14.894 -5.605,-17.097 -4.742,-0.79 -9.469,4.305 -10.363,9.132 -0.762,4.149 0.885,8.255 3.886,11.366 3.249,3.371 9.658,4.317 14.465,4.023 9.357,-0.547 24.947,-1.567 32.929,-18.055 0.531,-1.094 3.081,-8.864 3.081,-8.864 l 20.904,-69.949 h -15.248 l -0.453,1.509 z"
         id="path143"
         inkscape:connector-curvature="0"
         style="fill:#ffffff" />
      <polygon
         points="490.505,249.451 490.505,249.321 481.197,249.321 481.197,257.095 481.403,257.095 "
         id="polygon145"
         style="fill:#ffffff" />
      <polygon
         points="499.803,249.455 499.803,249.321 490.659,249.321 490.505,249.451 490.505,257.095 490.659,257.095 490.712,257.095 "
         id="polygon147"
         style="fill:#ffffff" />
      <polygon
         points="490.505,249.321 490.505,249.451 490.659,249.321 "
         id="polygon149"
         style="fill:#ffffff" />
      <polygon
         points="509.111,249.455 509.111,249.321 499.963,249.321 499.803,249.455 499.803,257.095 499.963,257.095 500.018,257.095 "
         id="polygon151"
         style="fill:#ffffff" />
      <polygon
         points="499.803,249.321 499.803,249.455 499.963,249.321 "
         id="polygon153"
         style="fill:#ffffff" />
      <polygon
         points="518.417,249.455 518.417,249.321 509.274,249.321 509.111,249.455 509.111,257.095 509.274,257.095 509.327,257.095 "
         id="polygon155"
         style="fill:#ffffff" />
      <polygon
         points="509.111,249.321 509.111,249.455 509.274,249.321 "
         id="polygon157"
         style="fill:#ffffff" />
      <polygon
         points="527.721,249.455 527.721,249.321 518.577,249.321 518.417,249.455 518.417,257.095 518.577,257.095 518.628,257.095 "
         id="polygon159"
         style="fill:#ffffff" />
      <polygon
         points="518.417,249.321 518.417,249.455 518.577,249.321 "
         id="polygon161"
         style="fill:#ffffff" />
      <polygon
         points="527.884,249.321 527.721,249.455 527.721,257.095 527.884,257.095 527.931,257.095 537.188,249.321 "
         id="polygon163"
         style="fill:#ffffff" />
      <polygon
         points="527.721,249.321 527.721,249.455 527.884,249.321 "
         id="polygon165"
         style="fill:#ffffff" />
      <polygon
         points="481.197,264.872 481.4,264.872 490.505,257.225 490.505,257.095 481.403,257.095 481.197,257.271 "
         id="polygon167"
         style="fill:#ffffff" />
      <polygon
         points="481.197,257.271 481.403,257.095 481.197,257.095 "
         id="polygon169"
         style="fill:#ffffff" />
      <polygon
         points="499.803,257.229 499.803,257.095 490.712,257.095 490.505,257.271 490.505,264.872 490.659,264.872 490.706,264.872 "
         id="polygon171"
         style="fill:#ffffff" />
      <polygon
         points="490.505,257.271 490.712,257.095 490.659,257.095 490.505,257.225 "
         id="polygon173"
         style="fill:#ffffff" />
      <polygon
         points="490.505,257.095 490.505,257.225 490.659,257.095 "
         id="polygon175"
         style="fill:#ffffff" />
      <polygon
         points="509.111,257.229 509.111,257.095 500.018,257.095 499.803,257.271 499.803,264.872 499.963,264.872 500.007,264.872 "
         id="polygon177"
         style="fill:#ffffff" />
      <polygon
         points="499.803,257.271 500.018,257.095 499.963,257.095 499.803,257.229 "
         id="polygon179"
         style="fill:#ffffff" />
      <polygon
         points="499.803,257.095 499.803,257.229 499.963,257.095 "
         id="polygon181"
         style="fill:#ffffff" />
      <polygon
         points="518.417,257.229 518.417,257.095 509.327,257.095 509.111,257.271 509.111,264.872 509.274,264.872 509.316,264.872 "
         id="polygon183"
         style="fill:#ffffff" />
      <polygon
         points="509.111,257.271 509.327,257.095 509.274,257.095 509.111,257.229 "
         id="polygon185"
         style="fill:#ffffff" />
      <polygon
         points="509.111,257.095 509.111,257.229 509.274,257.095 "
         id="polygon187"
         style="fill:#ffffff" />
      <polygon
         points="527.721,257.229 527.721,257.095 518.628,257.095 518.417,257.271 518.417,264.872 518.577,264.872 518.617,264.872 "
         id="polygon189"
         style="fill:#ffffff" />
      <polygon
         points="518.417,257.271 518.628,257.095 518.577,257.095 518.417,257.229 "
         id="polygon191"
         style="fill:#ffffff" />
      <polygon
         points="518.417,257.095 518.417,257.229 518.577,257.095 "
         id="polygon193"
         style="fill:#ffffff" />
      <polygon
         points="537.032,257.221 537.032,257.095 527.931,257.095 527.721,257.271 527.721,264.872 527.884,264.872 527.926,264.872 "
         id="polygon195"
         style="fill:#ffffff" />
      <polygon
         points="527.721,257.229 527.721,257.271 527.931,257.095 527.884,257.095 "
         id="polygon197"
         style="fill:#ffffff" />
      <polygon
         points="527.721,257.095 527.721,257.229 527.884,257.095 "
         id="polygon199"
         style="fill:#ffffff" />
      <polygon
         points="537.188,257.095 537.032,257.221 537.032,264.872 537.188,264.872 537.234,264.872 546.496,257.095 "
         id="polygon201"
         style="fill:#ffffff" />
      <polygon
         points="537.032,257.095 537.032,257.221 537.188,257.095 "
         id="polygon203"
         style="fill:#ffffff" />
      <polygon
         points="481.197,272.642 481.403,272.642 490.505,265.004 490.505,264.872 481.4,264.872 481.197,265.04 "
         id="polygon205"
         style="fill:#ffffff" />
      <polygon
         points="481.197,265.04 481.4,264.872 481.197,264.872 "
         id="polygon207"
         style="fill:#ffffff" />
      <polygon
         points="490.706,264.872 490.505,265.04 490.505,272.642 490.659,272.642 490.706,272.642 499.803,265.008 499.803,264.872 "
         id="polygon209"
         style="fill:#ffffff" />
      <polygon
         points="490.706,264.872 490.659,264.872 490.505,265.004 490.505,265.04 "
         id="polygon211"
         style="fill:#ffffff" />
      <polygon
         points="490.505,265.004 490.659,264.872 490.505,264.872 "
         id="polygon213"
         style="fill:#ffffff" />
      <polygon
         points="509.111,265.008 509.111,264.872 500.007,264.872 499.803,265.04 499.803,272.642 499.963,272.642 500.013,272.642 "
         id="polygon215"
         style="fill:#ffffff" />
      <polygon
         points="499.803,265.04 500.007,264.872 499.963,264.872 499.803,265.008 "
         id="polygon217"
         style="fill:#ffffff" />
      <polygon
         points="499.803,264.872 499.803,265.008 499.963,264.872 "
         id="polygon219"
         style="fill:#ffffff" />
      <polygon
         points="518.417,265.008 518.417,264.872 509.316,264.872 509.111,265.04 509.111,272.642 509.274,272.642 509.111,272.779 509.111,272.817 "
         id="polygon221"
         style="fill:#ffffff" />
      <polygon
         points="509.111,265.04 509.316,264.872 509.274,264.872 509.111,265.008 "
         id="polygon223"
         style="fill:#ffffff" />
      <polygon
         points="509.111,264.872 509.111,265.008 509.274,264.872 "
         id="polygon225"
         style="fill:#ffffff" />
      <polygon
         points="527.721,265.008 527.721,264.872 518.617,264.872 518.417,265.04 518.417,272.817 "
         id="polygon227"
         style="fill:#ffffff" />
      <polygon
         points="518.417,265.04 518.617,264.872 518.577,264.872 518.417,265.008 "
         id="polygon229"
         style="fill:#ffffff" />
      <polygon
         points="518.417,264.872 518.417,265.008 518.577,264.872 "
         id="polygon231"
         style="fill:#ffffff" />
      <polygon
         points="527.926,264.872 527.721,265.04 527.721,272.642 527.931,272.642 537.032,265.004 537.032,264.872 "
         id="polygon233"
         style="fill:#ffffff" />
      <polygon
         points="527.721,265.04 527.926,264.872 527.884,264.872 527.721,265.008 "
         id="polygon235"
         style="fill:#ffffff" />
      <polygon
         points="527.721,264.872 527.721,265.008 527.884,264.872 "
         id="polygon237"
         style="fill:#ffffff" />
      <polygon
         points="546.341,265.004 546.341,264.872 537.234,264.872 537.032,265.04 537.032,272.642 537.188,272.642 537.237,272.642 "
         id="polygon239"
         style="fill:#ffffff" />
      <polygon
         points="537.032,265.004 537.032,265.04 537.234,264.872 537.188,264.872 "
         id="polygon241"
         style="fill:#ffffff" />
      <polygon
         points="537.032,264.872 537.032,265.004 537.188,264.872 "
         id="polygon243"
         style="fill:#ffffff" />
      <polygon
         points="546.496,264.872 546.341,265.004 546.341,272.642 546.496,272.642 546.541,272.642 555.802,264.872 "
         id="polygon245"
         style="fill:#ffffff" />
      <polygon
         points="546.341,264.872 546.341,265.004 546.496,264.872 "
         id="polygon247"
         style="fill:#ffffff" />
      <polygon
         points="481.197,280.415 481.403,280.415 490.505,272.775 490.505,272.642 481.403,272.642 481.197,272.817 "
         id="polygon249"
         style="fill:#ffffff" />
      <polygon
         points="481.197,272.817 481.403,272.642 481.197,272.642 "
         id="polygon251"
         style="fill:#ffffff" />
      <polygon
         points="490.706,272.642 490.505,272.817 490.505,280.415 490.659,280.415 490.706,280.415 499.803,272.779 499.803,272.642 "
         id="polygon253"
         style="fill:#ffffff" />
      <polygon
         points="490.706,272.642 490.659,272.642 490.505,272.775 490.505,272.817 "
         id="polygon255"
         style="fill:#ffffff" />
      <polygon
         points="490.505,272.775 490.659,272.642 490.505,272.642 "
         id="polygon257"
         style="fill:#ffffff" />
      <polygon
         points="500.013,272.642 499.803,272.817 499.803,280.415 499.963,280.415 500.013,280.415 509.111,272.779 509.111,272.642 "
         id="polygon259"
         style="fill:#ffffff" />
      <polygon
         points="500.013,272.642 499.963,272.642 499.803,272.779 499.803,272.817 "
         id="polygon261"
         style="fill:#ffffff" />
      <polygon
         points="509.111,272.642 509.111,272.779 509.274,272.642 "
         id="polygon263"
         style="fill:#ffffff" />
      <polygon
         points="499.803,272.779 499.963,272.642 499.803,272.642 "
         id="polygon265"
         style="fill:#ffffff" />
      <polygon
         points="537.032,272.642 527.931,272.642 527.721,272.817 527.721,280.415 527.931,280.415 537.032,272.775 "
         id="polygon267"
         style="fill:#ffffff" />
      <polygon
         points="527.721,272.642 527.721,272.817 527.931,272.642 "
         id="polygon269"
         style="fill:#ffffff" />
      <polygon
         points="546.341,272.775 546.341,272.642 537.237,272.642 537.032,272.817 537.032,280.415 537.188,280.415 537.237,280.415 "
         id="polygon271"
         style="fill:#ffffff" />
      <polygon
         points="537.032,272.817 537.237,272.642 537.188,272.642 537.032,272.775 "
         id="polygon273"
         style="fill:#ffffff" />
      <polygon
         points="537.032,272.642 537.032,272.775 537.188,272.642 "
         id="polygon275"
         style="fill:#ffffff" />
      <polygon
         points="546.541,272.642 546.341,272.817 546.341,280.415 546.496,280.415 546.541,280.415 555.802,272.642 "
         id="polygon277"
         style="fill:#ffffff" />
      <polygon
         points="546.341,272.775 546.341,272.817 546.541,272.642 546.496,272.642 "
         id="polygon279"
         style="fill:#ffffff" />
      <polygon
         points="546.341,272.642 546.341,272.775 546.496,272.642 "
         id="polygon281"
         style="fill:#ffffff" />
      <polygon
         points="481.197,288.196 481.4,288.196 490.505,280.554 490.505,280.415 481.403,280.415 481.197,280.592 "
         id="polygon283"
         style="fill:#ffffff" />
      <polygon
         points="481.197,280.592 481.403,280.415 481.197,280.415 "
         id="polygon285"
         style="fill:#ffffff" />
      <polygon
         points="490.706,280.415 490.505,280.592 490.505,288.196 490.659,288.196 490.706,288.196 499.803,280.554 499.803,280.415 "
         id="polygon287"
         style="fill:#ffffff" />
      <polygon
         points="490.706,280.415 490.659,280.415 490.505,280.554 490.505,280.592 "
         id="polygon289"
         style="fill:#ffffff" />
      <polygon
         points="490.505,280.554 490.659,280.415 490.505,280.415 "
         id="polygon291"
         style="fill:#ffffff" />
      <polygon
         points="499.803,288.196 499.963,288.196 500.007,288.196 509.274,280.415 500.013,280.415 499.803,280.592 "
         id="polygon293"
         style="fill:#ffffff" />
      <polygon
         points="500.013,280.415 499.963,280.415 499.803,280.554 499.803,280.592 "
         id="polygon295"
         style="fill:#ffffff" />
      <polygon
         points="499.803,280.554 499.963,280.415 499.803,280.415 "
         id="polygon297"
         style="fill:#ffffff" />
      <polygon
         points="527.931,280.415 527.721,280.592 527.721,288.196 527.926,288.196 537.032,280.549 537.032,280.415 "
         id="polygon299"
         style="fill:#ffffff" />
      <polygon
         points="527.721,280.415 527.721,280.592 527.931,280.415 "
         id="polygon301"
         style="fill:#ffffff" />
      <polygon
         points="537.234,288.196 546.341,280.554 546.341,280.415 537.237,280.415 537.032,280.592 537.032,288.196 537.188,288.196 "
         id="polygon303"
         style="fill:#ffffff" />
      <polygon
         points="537.032,280.592 537.237,280.415 537.188,280.415 537.032,280.549 "
         id="polygon305"
         style="fill:#ffffff" />
      <polygon
         points="537.032,280.415 537.032,280.549 537.188,280.415 "
         id="polygon307"
         style="fill:#ffffff" />
      <polygon
         points="546.541,280.415 546.341,280.592 546.341,288.196 546.496,288.196 546.541,288.196 555.802,280.415 "
         id="polygon309"
         style="fill:#ffffff" />
      <polygon
         points="546.341,280.554 546.341,280.592 546.541,280.415 546.496,280.415 "
         id="polygon311"
         style="fill:#ffffff" />
      <polygon
         points="546.341,280.415 546.341,280.554 546.496,280.415 "
         id="polygon313"
         style="fill:#ffffff" />
      <polygon
         points="481.197,295.97 481.403,295.97 490.505,288.326 490.505,288.196 481.4,288.196 481.197,288.364 "
         id="polygon315"
         style="fill:#ffffff" />
      <polygon
         points="481.197,288.364 481.4,288.196 481.197,288.196 "
         id="polygon317"
         style="fill:#ffffff" />
      <polygon
         points="490.706,288.196 490.505,288.364 490.505,295.97 490.659,295.97 490.706,295.97 499.803,288.33 499.803,288.196 "
         id="polygon319"
         style="fill:#ffffff" />
      <polygon
         points="490.706,288.196 490.659,288.196 490.505,288.326 490.505,288.364 "
         id="polygon321"
         style="fill:#ffffff" />
      <polygon
         points="490.505,288.326 490.659,288.196 490.505,288.196 "
         id="polygon323"
         style="fill:#ffffff" />
      <polygon
         points="499.803,295.97 499.963,295.97 500.013,295.97 509.274,288.196 500.007,288.196 499.803,288.364 "
         id="polygon325"
         style="fill:#ffffff" />
      <polygon
         points="500.007,288.196 499.963,288.196 499.803,288.33 499.803,288.364 "
         id="polygon327"
         style="fill:#ffffff" />
      <polygon
         points="499.803,288.33 499.963,288.196 499.803,288.196 "
         id="polygon329"
         style="fill:#ffffff" />
      <polygon
         points="537.032,288.196 527.926,288.196 527.721,288.364 527.721,295.97 527.931,295.97 537.032,288.322 "
         id="polygon331"
         style="fill:#ffffff" />
      <polygon
         points="527.721,288.364 527.926,288.196 527.721,288.196 "
         id="polygon333"
         style="fill:#ffffff" />
      <polygon
         points="537.237,295.97 546.341,288.326 546.341,288.196 537.234,288.196 537.032,288.364 537.032,295.97 537.188,295.97 "
         id="polygon335"
         style="fill:#ffffff" />
      <polygon
         points="537.032,288.364 537.234,288.196 537.188,288.196 537.032,288.322 "
         id="polygon337"
         style="fill:#ffffff" />
      <polygon
         points="537.032,288.196 537.032,288.322 537.188,288.196 "
         id="polygon339"
         style="fill:#ffffff" />
      <polygon
         points="546.541,288.196 546.341,288.364 546.341,295.97 546.496,295.97 546.541,295.97 555.802,288.196 "
         id="polygon341"
         style="fill:#ffffff" />
      <polygon
         points="546.341,288.326 546.341,288.364 546.541,288.196 546.496,288.196 "
         id="polygon343"
         style="fill:#ffffff" />
      <polygon
         points="546.341,288.196 546.341,288.326 546.496,288.196 "
         id="polygon345"
         style="fill:#ffffff" />
      <polygon
         points="481.197,303.748 481.403,303.748 490.505,296.104 490.505,295.97 481.403,295.97 481.197,296.143 "
         id="polygon347"
         style="fill:#ffffff" />
      <polygon
         points="481.197,296.143 481.403,295.97 481.197,295.97 "
         id="polygon349"
         style="fill:#ffffff" />
      <polygon
         points="490.706,295.97 490.505,296.143 490.505,303.748 490.659,303.748 490.706,303.748 499.803,296.104 499.803,295.97 "
         id="polygon351"
         style="fill:#ffffff" />
      <polygon
         points="490.706,295.97 490.659,295.97 490.505,296.104 490.505,296.143 "
         id="polygon353"
         style="fill:#ffffff" />
      <polygon
         points="490.505,296.104 490.659,295.97 490.505,295.97 "
         id="polygon355"
         style="fill:#ffffff" />
      <polygon
         points="499.803,303.748 499.963,303.748 500.013,303.748 509.274,295.97 500.013,295.97 499.803,296.143 "
         id="polygon357"
         style="fill:#ffffff" />
      <polygon
         points="500.013,295.97 499.963,295.97 499.803,296.104 499.803,296.143 "
         id="polygon359"
         style="fill:#ffffff" />
      <polygon
         points="499.803,296.104 499.963,295.97 499.803,295.97 "
         id="polygon361"
         style="fill:#ffffff" />
      <polygon
         points="537.032,295.97 527.931,295.97 527.721,296.143 527.721,303.748 527.931,303.748 537.032,296.101 "
         id="polygon363"
         style="fill:#ffffff" />
      <polygon
         points="527.721,296.143 527.931,295.97 527.721,295.97 "
         id="polygon365"
         style="fill:#ffffff" />
      <polygon
         points="537.237,303.748 546.341,296.104 546.341,295.97 537.237,295.97 537.032,296.143 537.032,303.748 537.188,303.748 "
         id="polygon367"
         style="fill:#ffffff" />
      <polygon
         points="537.032,296.143 537.237,295.97 537.188,295.97 537.032,296.101 "
         id="polygon369"
         style="fill:#ffffff" />
      <polygon
         points="537.032,295.97 537.032,296.101 537.188,295.97 "
         id="polygon371"
         style="fill:#ffffff" />
      <polygon
         points="546.541,295.97 546.341,296.143 546.341,303.748 546.496,303.748 546.541,303.748 555.802,295.97 "
         id="polygon373"
         style="fill:#ffffff" />
      <polygon
         points="546.341,296.104 546.341,296.143 546.541,295.97 546.496,295.97 "
         id="polygon375"
         style="fill:#ffffff" />
      <polygon
         points="546.341,295.97 546.341,296.104 546.496,295.97 "
         id="polygon377"
         style="fill:#ffffff" />
      <polygon
         points="481.197,311.522 481.4,311.522 490.505,303.877 490.505,303.748 481.403,303.748 481.197,303.92 "
         id="polygon379"
         style="fill:#ffffff" />
      <polygon
         points="481.197,303.92 481.403,303.748 481.197,303.748 "
         id="polygon381"
         style="fill:#ffffff" />
      <polygon
         points="490.706,303.748 490.505,303.92 490.505,311.522 490.659,311.522 490.706,311.522 499.803,303.883 499.803,303.748 "
         id="polygon383"
         style="fill:#ffffff" />
      <polygon
         points="490.706,303.748 490.659,303.748 490.505,303.877 490.505,303.92 "
         id="polygon385"
         style="fill:#ffffff" />
      <polygon
         points="490.505,303.877 490.659,303.748 490.505,303.748 "
         id="polygon387"
         style="fill:#ffffff" />
      <polygon
         points="499.803,311.522 499.963,311.522 500.007,311.522 509.274,303.748 500.013,303.748 499.803,303.92 "
         id="polygon389"
         style="fill:#ffffff" />
      <polygon
         points="500.013,303.748 499.963,303.748 499.803,303.883 499.803,303.92 "
         id="polygon391"
         style="fill:#ffffff" />
      <polygon
         points="499.803,303.883 499.963,303.748 499.803,303.748 "
         id="polygon393"
         style="fill:#ffffff" />
      <polygon
         points="537.032,303.748 527.931,303.748 527.721,303.92 527.721,311.522 527.926,311.522 537.032,303.873 "
         id="polygon395"
         style="fill:#ffffff" />
      <polygon
         points="527.721,303.92 527.931,303.748 527.721,303.748 "
         id="polygon397"
         style="fill:#ffffff" />
      <polygon
         points="537.234,311.522 546.341,303.877 546.341,303.748 537.237,303.748 537.032,303.92 537.032,311.522 537.188,311.522 "
         id="polygon399"
         style="fill:#ffffff" />
      <polygon
         points="537.032,303.92 537.237,303.748 537.188,303.748 537.032,303.873 "
         id="polygon401"
         style="fill:#ffffff" />
      <polygon
         points="537.032,303.748 537.032,303.873 537.188,303.748 "
         id="polygon403"
         style="fill:#ffffff" />
      <polygon
         points="546.541,303.748 546.341,303.92 546.341,311.522 546.496,311.522 546.541,311.522 555.802,303.748 "
         id="polygon405"
         style="fill:#ffffff" />
      <polygon
         points="546.341,303.877 546.341,303.92 546.541,303.748 546.496,303.748 "
         id="polygon407"
         style="fill:#ffffff" />
      <polygon
         points="546.341,303.748 546.341,303.877 546.496,303.748 "
         id="polygon409"
         style="fill:#ffffff" />
      <polygon
         points="481.197,319.295 481.403,319.295 490.505,311.655 490.505,311.522 481.4,311.522 481.197,311.693 "
         id="polygon411"
         style="fill:#ffffff" />
      <polygon
         points="481.197,311.693 481.4,311.522 481.197,311.522 "
         id="polygon413"
         style="fill:#ffffff" />
      <polygon
         points="490.706,311.522 490.505,311.693 490.505,319.295 490.659,319.295 490.706,319.295 499.803,311.655 499.803,311.522 "
         id="polygon415"
         style="fill:#ffffff" />
      <polygon
         points="490.706,311.522 490.659,311.522 490.505,311.655 490.505,311.693 "
         id="polygon417"
         style="fill:#ffffff" />
      <polygon
         points="490.505,311.655 490.659,311.522 490.505,311.522 "
         id="polygon419"
         style="fill:#ffffff" />
      <polygon
         points="499.803,319.295 499.963,319.295 500.013,319.295 509.274,311.522 500.007,311.522 499.803,311.693 "
         id="polygon421"
         style="fill:#ffffff" />
      <polygon
         points="500.007,311.522 499.963,311.522 499.803,311.655 499.803,311.693 "
         id="polygon423"
         style="fill:#ffffff" />
      <polygon
         points="499.803,311.655 499.963,311.522 499.803,311.522 "
         id="polygon425"
         style="fill:#ffffff" />
      <polygon
         points="527.931,319.295 537.032,311.655 537.032,311.522 527.926,311.522 527.721,311.693 527.721,319.295 527.884,319.295 "
         id="polygon427"
         style="fill:#ffffff" />
      <polygon
         points="527.721,311.693 527.926,311.522 527.721,311.522 "
         id="polygon429"
         style="fill:#ffffff" />
      <polygon
         points="537.237,319.295 546.341,311.655 546.341,311.522 537.234,311.522 537.032,311.693 537.032,319.295 537.188,319.295 "
         id="polygon431"
         style="fill:#ffffff" />
      <polygon
         points="537.032,311.693 537.234,311.522 537.188,311.522 537.032,311.655 "
         id="polygon433"
         style="fill:#ffffff" />
      <polygon
         points="537.032,311.522 537.032,311.655 537.188,311.522 "
         id="polygon435"
         style="fill:#ffffff" />
      <polygon
         points="546.541,311.522 546.341,311.693 546.341,319.295 546.496,319.295 546.541,319.295 555.802,311.522 "
         id="polygon437"
         style="fill:#ffffff" />
      <polygon
         points="546.341,311.655 546.341,311.693 546.541,311.522 546.496,311.522 "
         id="polygon439"
         style="fill:#ffffff" />
      <polygon
         points="546.341,311.522 546.341,311.655 546.496,311.522 "
         id="polygon441"
         style="fill:#ffffff" />
      <polygon
         points="481.197,327.072 481.403,327.072 490.505,319.425 490.505,319.295 481.403,319.295 481.197,319.467 "
         id="polygon443"
         style="fill:#ffffff" />
      <polygon
         points="481.197,319.467 481.403,319.295 481.197,319.295 "
         id="polygon445"
         style="fill:#ffffff" />
      <polygon
         points="490.706,319.295 490.505,319.467 490.505,327.072 490.659,327.072 490.706,327.072 499.803,319.429 499.803,319.295 "
         id="polygon447"
         style="fill:#ffffff" />
      <polygon
         points="490.706,319.295 490.659,319.295 490.505,319.425 490.505,319.467 "
         id="polygon449"
         style="fill:#ffffff" />
      <polygon
         points="490.505,319.425 490.659,319.295 490.505,319.295 "
         id="polygon451"
         style="fill:#ffffff" />
      <polygon
         points="499.803,327.072 499.963,327.072 500.013,327.072 509.111,319.429 509.111,319.295 500.013,319.295 499.803,319.467 "
         id="polygon453"
         style="fill:#ffffff" />
      <polygon
         points="500.013,319.295 499.963,319.295 499.803,319.429 499.803,319.467 "
         id="polygon455"
         style="fill:#ffffff" />
      <polygon
         points="499.803,319.429 499.963,319.295 499.803,319.295 "
         id="polygon457"
         style="fill:#ffffff" />
      <polygon
         points="509.111,327.072 509.274,327.072 509.316,327.072 518.417,319.429 518.417,319.295 509.274,319.295 509.111,319.429 "
         id="polygon459"
         style="fill:#ffffff" />
      <polygon
         points="509.111,319.295 509.111,319.429 509.274,319.295 "
         id="polygon461"
         style="fill:#ffffff" />
      <polygon
         points="518.417,327.072 518.577,327.072 518.617,327.072 527.721,319.429 527.721,319.295 518.577,319.295 518.417,319.429 "
         id="polygon463"
         style="fill:#ffffff" />
      <polygon
         points="518.417,319.295 518.417,319.429 518.577,319.295 "
         id="polygon465"
         style="fill:#ffffff" />
      <polygon
         points="527.931,327.072 537.032,319.425 537.032,319.295 527.931,319.295 527.721,319.467 527.721,327.072 527.884,327.072 "
         id="polygon467"
         style="fill:#ffffff" />
      <polygon
         points="527.721,319.467 527.931,319.295 527.884,319.295 527.721,319.429 "
         id="polygon469"
         style="fill:#ffffff" />
      <polygon
         points="527.721,319.295 527.721,319.429 527.884,319.295 "
         id="polygon471"
         style="fill:#ffffff" />
      <polygon
         points="537.237,327.072 546.341,319.425 546.341,319.295 537.237,319.295 537.032,319.467 537.032,327.072 537.188,327.072 "
         id="polygon473"
         style="fill:#ffffff" />
      <polygon
         points="537.032,319.467 537.237,319.295 537.188,319.295 537.032,319.425 "
         id="polygon475"
         style="fill:#ffffff" />
      <polygon
         points="537.032,319.295 537.032,319.425 537.188,319.295 "
         id="polygon477"
         style="fill:#ffffff" />
      <polygon
         points="546.341,327.244 555.802,319.295 546.541,319.295 546.341,319.467 546.341,327.072 546.496,327.072 546.341,327.203 "
         id="polygon479"
         style="fill:#ffffff" />
      <polygon
         points="546.341,319.425 546.341,319.467 546.541,319.295 546.496,319.295 "
         id="polygon481"
         style="fill:#ffffff" />
      <polygon
         points="546.341,319.295 546.341,319.425 546.496,319.295 "
         id="polygon483"
         style="fill:#ffffff" />
      <polygon
         points="481.197,334.85 481.403,334.85 490.505,327.203 490.505,327.072 481.403,327.072 481.197,327.244 "
         id="polygon485"
         style="fill:#ffffff" />
      <polygon
         points="481.197,327.244 481.403,327.072 481.197,327.072 "
         id="polygon487"
         style="fill:#ffffff" />
      <polygon
         points="490.505,334.85 490.659,334.85 490.706,334.85 499.803,327.206 499.803,327.072 490.706,327.072 490.505,327.244 "
         id="polygon489"
         style="fill:#ffffff" />
      <polygon
         points="490.706,327.072 490.659,327.072 490.505,327.203 490.505,327.244 "
         id="polygon491"
         style="fill:#ffffff" />
      <polygon
         points="490.505,327.203 490.659,327.072 490.505,327.072 "
         id="polygon493"
         style="fill:#ffffff" />
      <polygon
         points="499.803,334.85 499.963,334.85 500.013,334.85 509.111,327.206 509.111,327.072 500.013,327.072 499.803,327.244 "
         id="polygon495"
         style="fill:#ffffff" />
      <polygon
         points="499.803,327.206 499.803,327.244 500.013,327.072 499.963,327.072 "
         id="polygon497"
         style="fill:#ffffff" />
      <polygon
         points="499.803,327.206 499.963,327.072 499.803,327.072 "
         id="polygon499"
         style="fill:#ffffff" />
      <polygon
         points="509.111,334.85 509.274,334.85 509.316,334.85 518.417,327.206 518.417,327.072 509.316,327.072 509.111,327.244 "
         id="polygon501"
         style="fill:#ffffff" />
      <polygon
         points="509.111,327.206 509.111,327.244 509.316,327.072 509.274,327.072 "
         id="polygon503"
         style="fill:#ffffff" />
      <polygon
         points="509.111,327.206 509.274,327.072 509.111,327.072 "
         id="polygon505"
         style="fill:#ffffff" />
      <polygon
         points="518.417,334.85 518.577,334.85 518.617,334.85 527.721,327.206 527.721,327.072 518.617,327.072 518.417,327.244 "
         id="polygon507"
         style="fill:#ffffff" />
      <polygon
         points="518.417,327.206 518.417,327.244 518.617,327.072 518.577,327.072 "
         id="polygon509"
         style="fill:#ffffff" />
      <polygon
         points="518.417,327.206 518.577,327.072 518.417,327.072 "
         id="polygon511"
         style="fill:#ffffff" />
      <polygon
         points="527.721,334.85 527.884,334.85 527.931,334.85 537.032,327.198 537.032,327.072 527.931,327.072 527.721,327.244 "
         id="polygon513"
         style="fill:#ffffff" />
      <polygon
         points="527.721,327.206 527.721,327.244 527.931,327.072 527.884,327.072 "
         id="polygon515"
         style="fill:#ffffff" />
      <polygon
         points="527.721,327.206 527.884,327.072 527.721,327.072 "
         id="polygon517"
         style="fill:#ffffff" />
      <polygon
         points="537.032,334.979 537.032,335.021 546.341,327.203 546.341,327.072 537.237,327.072 537.032,327.244 537.032,334.85 537.188,334.85 "
         id="polygon519"
         style="fill:#ffffff" />
      <polygon
         points="537.032,327.198 537.032,327.244 537.237,327.072 537.188,327.072 "
         id="polygon521"
         style="fill:#ffffff" />
      <polygon
         points="546.341,327.203 546.496,327.072 546.341,327.072 "
         id="polygon523"
         style="fill:#ffffff" />
      <polygon
         points="537.032,327.072 537.032,327.198 537.188,327.072 "
         id="polygon525"
         style="fill:#ffffff" />
      <polygon
         points="481.197,342.799 490.505,334.979 490.505,334.85 481.403,334.85 481.197,335.021 "
         id="polygon527"
         style="fill:#ffffff" />
      <polygon
         points="481.197,335.021 481.403,334.85 481.197,334.85 "
         id="polygon529"
         style="fill:#ffffff" />
      <polygon
         points="490.505,342.799 499.803,334.984 499.803,334.85 490.706,334.85 490.505,335.021 "
         id="polygon531"
         style="fill:#ffffff" />
      <polygon
         points="490.659,334.85 490.505,334.979 490.505,335.021 490.706,334.85 "
         id="polygon533"
         style="fill:#ffffff" />
      <polygon
         points="490.505,334.979 490.659,334.85 490.505,334.85 "
         id="polygon535"
         style="fill:#ffffff" />
      <polygon
         points="499.803,342.799 509.111,334.984 509.111,334.85 500.013,334.85 499.803,335.021 "
         id="polygon537"
         style="fill:#ffffff" />
      <polygon
         points="499.963,334.85 499.803,334.984 499.803,335.021 500.013,334.85 "
         id="polygon539"
         style="fill:#ffffff" />
      <polygon
         points="499.803,334.984 499.963,334.85 499.803,334.85 "
         id="polygon541"
         style="fill:#ffffff" />
      <polygon
         points="509.111,342.799 518.417,334.984 518.417,334.85 509.316,334.85 509.111,335.021 "
         id="polygon543"
         style="fill:#ffffff" />
      <polygon
         points="509.274,334.85 509.111,334.984 509.111,335.021 509.316,334.85 "
         id="polygon545"
         style="fill:#ffffff" />
      <polygon
         points="509.111,334.984 509.274,334.85 509.111,334.85 "
         id="polygon547"
         style="fill:#ffffff" />
      <polygon
         points="518.417,342.799 527.721,334.984 527.721,334.85 518.617,334.85 518.417,335.021 "
         id="polygon549"
         style="fill:#ffffff" />
      <polygon
         points="518.577,334.85 518.417,334.984 518.417,335.021 518.617,334.85 "
         id="polygon551"
         style="fill:#ffffff" />
      <polygon
         points="518.417,334.984 518.577,334.85 518.417,334.85 "
         id="polygon553"
         style="fill:#ffffff" />
      <polygon
         points="527.721,342.799 537.032,334.979 537.032,334.85 527.931,334.85 527.721,335.021 "
         id="polygon555"
         style="fill:#ffffff" />
      <polygon
         points="527.884,334.85 527.721,334.984 527.721,335.021 527.931,334.85 "
         id="polygon557"
         style="fill:#ffffff" />
      <polygon
         points="537.032,334.979 537.188,334.85 537.032,334.85 "
         id="polygon559"
         style="fill:#ffffff" />
      <polygon
         points="527.721,334.984 527.884,334.85 527.721,334.85 "
         id="polygon561"
         style="fill:#ffffff" />
      <path
         d="m 611.333,448.864 1.525,-1.33 c 0.394,0.205 0.798,0.416 1.182,0.641 l -2.302,2.004 -0.405,-1.315 z"
         id="path563"
         inkscape:connector-curvature="0"
         style="fill:#1d1d1b" />
      <path
         d="m 593.542,509.217 c -0.331,0.038 -0.702,0.049 -1.041,0.085 l 2.345,-2.046 0.771,1 -1.678,1.461 -0.397,-0.5 z"
         id="path565"
         inkscape:connector-curvature="0"
         style="fill:#1d1d1b" />
      <polygon
         points="594.889,510.895 596.547,509.449 597.316,510.443 595.685,511.867 "
         id="polygon567"
         style="fill:#1d1d1b" />
      <polygon
         points="596.62,513.04 598.241,511.637 599.009,512.635 597.414,514.028 "
         id="polygon569"
         style="fill:#1d1d1b" />
      <polygon
         points="598.356,515.195 599.935,513.823 600.707,514.822 599.151,516.174 "
         id="polygon571"
         style="fill:#1d1d1b" />
      <polygon
         points="600.092,517.345 601.633,516.005 602.4,517.003 600.886,518.329 "
         id="polygon573"
         style="fill:#1d1d1b" />
      <polygon
         points="602.625,520.484 601.827,519.507 603.326,518.197 604.099,519.196 "
         id="polygon575"
         style="fill:#1d1d1b" />
      <polygon
         points="604.356,522.636 603.562,521.651 605.019,520.385 605.792,521.379 "
         id="polygon577"
         style="fill:#1d1d1b" />
      <polygon
         points="572.051,503.15 568.755,506.021 568.755,508.019 574.327,503.15 "
         id="polygon579"
         style="fill:none" />
      <polygon
         points="568.755,504.349 570.13,503.15 568.755,503.15 "
         id="polygon581"
         style="fill:none" />
      <path
         d="m 568.755,458.345 v 1.997 l 14.136,-12.335 c -0.703,-0.047 -1.413,-0.089 -2.148,-0.115 l -11.988,10.453 z"
         id="path583"
         inkscape:connector-curvature="0"
         style="fill:none" />
      <polygon
         points="568.755,449.338 570.489,447.828 568.755,447.828 "
         id="polygon585"
         style="fill:none" />
      <path
         d="m 578.203,447.828 h -1.586 l -7.862,6.851 v 1.998 l 10.123,-8.838 c -0.229,0 -0.444,-0.011 -0.675,-0.011 z"
         id="path587"
         inkscape:connector-curvature="0"
         style="fill:none" />
      <polygon
         points="572.408,447.828 568.755,451.016 568.755,453.008 574.698,447.828 "
         id="polygon589"
         style="fill:none" />
      <polygon
         points="570.489,447.828 568.755,449.338 568.755,451.016 572.408,447.828 "
         id="polygon591"
         style="fill:#ffffff" />
      <polygon
         points="574.698,447.828 568.755,453.008 568.755,454.679 576.617,447.828 "
         id="polygon593"
         style="fill:#ffffff" />
      <path
         d="m 578.878,447.839 -10.123,8.838 v 1.668 l 11.987,-10.453 c -0.61,-0.028 -1.225,-0.048 -1.864,-0.053 z"
         id="path595"
         inkscape:connector-curvature="0"
         style="fill:#ffffff" />
      <path
         d="m 576.154,454.279 h 1.468 l 7.023,-6.125 c -0.569,-0.063 -1.164,-0.111 -1.755,-0.147 l -14.136,12.335 v 1.672 l 7.399,-6.456 v -1.279 z"
         id="path597"
         inkscape:connector-curvature="0"
         style="fill:#ffffff" />
      <path
         d="m 581.819,454.279 6.434,-5.615 c -0.523,-0.094 -1.075,-0.168 -1.624,-0.247 l -6.729,5.862 h 1.919 z"
         id="path599"
         inkscape:connector-curvature="0"
         style="fill:#ffffff" />
      <polygon
         points="576.154,457.555 568.755,464.006 568.755,465.679 576.154,459.222 "
         id="polygon601"
         style="fill:#ffffff" />
      <polygon
         points="576.154,461.22 568.755,467.676 568.755,469.349 576.154,462.892 "
         id="polygon603"
         style="fill:#ffffff" />
      <path
         d="m 585.601,454.279 c 0.139,0 0.273,0.011 0.412,0.011 l 5.521,-4.816 c -0.473,-0.142 -0.954,-0.278 -1.462,-0.398 l -5.962,5.204 h 1.491 z"
         id="path605"
         inkscape:connector-curvature="0"
         style="fill:#ffffff" />
      <polygon
         points="576.154,464.889 568.755,471.346 568.755,473.019 576.154,466.557 "
         id="polygon607"
         style="fill:#ffffff" />
      <path
         d="m 590.043,454.443 4.464,-3.892 c -0.429,-0.188 -0.845,-0.378 -1.296,-0.546 l -4.979,4.343 c 0.621,0.021 1.22,0.052 1.811,0.095 z"
         id="path609"
         inkscape:connector-curvature="0"
         style="fill:#ffffff" />
      <polygon
         points="576.154,468.549 568.755,475.016 568.755,476.683 576.154,470.227 "
         id="polygon611"
         style="fill:#ffffff" />
      <path
         d="m 593.795,454.836 3.346,-2.917 c -0.37,-0.231 -0.752,-0.457 -1.156,-0.668 l -3.854,3.354 c 0.578,0.069 1.113,0.153 1.664,0.231 z"
         id="path613"
         inkscape:connector-curvature="0"
         style="fill:#ffffff" />
      <path
         d="m 597.251,455.483 2.173,-1.887 c -0.037,-0.026 -0.058,-0.059 -0.084,-0.079 -0.29,-0.258 -0.62,-0.474 -0.931,-0.716 l -2.683,2.34 c 0.527,0.106 1.02,0.227 1.525,0.342 z"
         id="path615"
         inkscape:connector-curvature="0"
         style="fill:#ffffff" />
      <polygon
         points="576.154,472.218 568.755,478.68 568.755,480.353 576.154,473.901 "
         id="polygon617"
         style="fill:#ffffff" />
      <path
         d="m 600.406,456.404 0.916,-0.806 c -0.269,-0.314 -0.536,-0.636 -0.83,-0.946 l -1.488,1.305 c 0.478,0.142 0.961,0.278 1.402,0.447 z"
         id="path619"
         inkscape:connector-curvature="0"
         style="fill:#ffffff" />
      <polygon
         points="576.154,475.895 568.755,482.346 568.755,484.017 576.154,477.561 "
         id="polygon621"
         style="fill:#ffffff" />
      <path
         d="m 602.573,457.312 c -0.111,-0.173 -0.209,-0.352 -0.326,-0.525 l -0.288,0.247 c 0.209,0.095 0.41,0.19 0.614,0.278 z"
         id="path623"
         inkscape:connector-curvature="0"
         style="fill:#ffffff" />
      <polygon
         points="576.154,479.554 568.755,486.015 568.755,487.687 576.154,481.23 "
         id="polygon625"
         style="fill:#ffffff" />
      <polygon
         points="568.755,491.119 569.028,491.119 576.154,484.901 576.154,483.224 568.755,489.68 "
         id="polygon627"
         style="fill:#ffffff" />
      <path
         d="m 604.713,458.302 -0.12,0.104 c 0.09,0.059 0.169,0.122 0.251,0.174 -0.041,-0.09 -0.082,-0.189 -0.131,-0.278 z"
         id="path629"
         inkscape:connector-curvature="0"
         style="fill:#ffffff" />
      <path
         d="m 616.475,449.711 c -0.347,-0.242 -0.709,-0.49 -1.083,-0.721 l -0.011,0.016 c 0.264,0.321 0.537,0.641 0.784,0.982 l 0.31,-0.277 z"
         id="path631"
         inkscape:connector-curvature="0"
         style="fill:#ffffff" />
      <polygon
         points="576.154,486.894 571.308,491.119 573.224,491.119 576.154,488.564 "
         id="polygon633"
         style="fill:#ffffff" />
      <path
         d="m 584.78,443.428 h -22.956 v 52.292 h 21.649 c 1.072,-0.046 27.97,-1.645 27.97,-25.966 0,-26.026 -25.572,-26.326 -26.663,-26.326 z m 14.56,41.935 c -4.302,3.838 -11.35,5.756 -21.137,5.756 h -4.979 -1.916 -2.279 -0.273 v -1.439 -1.993 -1.672 -1.998 -1.671 -1.993 -1.673 -1.997 -1.667 -1.997 -1.673 -1.997 -1.673 -1.997 -1.673 -1.992 -1.672 -1.997 -1.668 -1.998 -1.671 -1.992 -1.678 -1.51 h 1.734 1.919 2.29 1.919 1.586 c 0.23,0 0.446,0.011 0.675,0.011 0.639,0.005 1.254,0.025 1.864,0.053 0.735,0.026 1.445,0.068 2.148,0.115 0.591,0.036 1.186,0.084 1.755,0.147 0.687,0.068 1.333,0.163 1.983,0.263 0.549,0.079 1.101,0.153 1.624,0.247 0.633,0.126 1.228,0.269 1.818,0.411 0.508,0.12 0.989,0.257 1.462,0.398 0.571,0.168 1.142,0.337 1.678,0.532 0.451,0.168 0.867,0.357 1.296,0.546 0.505,0.222 1.01,0.446 1.478,0.699 0.404,0.211 0.786,0.437 1.156,0.668 0.449,0.278 0.863,0.578 1.269,0.883 0.311,0.242 0.641,0.458 0.931,0.716 0.026,0.021 0.047,0.053 0.084,0.079 0.373,0.336 0.715,0.693 1.068,1.056 0.294,0.311 0.562,0.632 0.83,0.946 0.32,0.39 0.637,0.783 0.925,1.188 0.117,0.174 0.215,0.353 0.326,0.525 2.119,3.292 3.208,7.313 3.208,12.094 -0.001,6.804 -2.152,12.125 -6.442,15.958 z"
         id="path635"
         inkscape:connector-curvature="0"
         style="fill:#ffffff" />
      <path
         d="m 618.741,451.403 c -0.111,-0.084 -0.211,-0.173 -0.321,-0.263 -0.22,-0.184 -0.463,-0.347 -0.693,-0.525 l -0.699,0.615 c 0.235,0.352 0.5,0.684 0.715,1.04 l 0.998,-0.867 z"
         id="path637"
         inkscape:connector-curvature="0"
         style="fill:#ffffff" />
      <path
         d="m 620.812,453.271 c -0.306,-0.296 -0.604,-0.584 -0.926,-0.873 l -1.408,1.229 c 0.204,0.38 0.415,0.758 0.604,1.152 l 1.73,-1.508 z"
         id="path639"
         inkscape:connector-curvature="0"
         style="fill:#ffffff" />
      <path
         d="m 622.669,455.311 c -0.263,-0.326 -0.536,-0.643 -0.821,-0.952 l -2.124,1.851 c 0.175,0.41 0.331,0.83 0.484,1.251 l 2.461,-2.15 z"
         id="path641"
         inkscape:connector-curvature="0"
         style="fill:#ffffff" />
      <polygon
         points="570.13,503.15 568.755,504.349 568.755,506.021 572.051,503.15 "
         id="polygon643"
         style="fill:#ffffff" />
      <path
         d="m 624.072,457.871 c -0.236,-0.348 -0.495,-0.684 -0.746,-1.025 l -2.86,2.497 c 0.137,0.446 0.236,0.904 0.356,1.361 l 3.25,-2.833 z"
         id="path645"
         inkscape:connector-curvature="0"
         style="fill:#ffffff" />
      <polygon
         points="574.327,503.15 568.755,508.019 568.755,509.696 576.247,503.15 "
         id="polygon647"
         style="fill:#ffffff" />
      <path
         d="m 625.823,459.896 c -0.211,-0.374 -0.421,-0.747 -0.641,-1.115 l -3.65,3.186 c 0.101,0.479 0.147,0.979 0.231,1.467 l 4.06,-3.538 z"
         id="path649"
         inkscape:connector-curvature="0"
         style="fill:#ffffff" />
      <path
         d="m 627.069,462.481 c -0.084,-0.215 -0.157,-0.421 -0.247,-0.615 -0.095,-0.194 -0.195,-0.395 -0.295,-0.589 l -4.501,3.922 c 0.059,0.516 0.086,1.047 0.116,1.572 l 4.927,-4.29 z"
         id="path651"
         inkscape:connector-curvature="0"
         style="fill:#ffffff" />
      <path
         d="m 578.797,503.15 h -0.257 l -9.785,8.538 v 1.672 l 11.751,-10.253 c -0.571,0.017 -1.12,0.043 -1.709,0.043 z"
         id="path653"
         inkscape:connector-curvature="0"
         style="fill:#ffffff" />
      <path
         d="m 568.755,515.353 v 1.673 l 7.399,-6.457 v -0.956 h 1.102 l 7.742,-6.757 c -0.697,0.068 -1.396,0.132 -2.121,0.173 l -14.122,12.324 z"
         id="path655"
         inkscape:connector-curvature="0"
         style="fill:#ffffff" />
      <path
         d="m 622.237,470.353 5.862,-5.116 c -0.132,-0.432 -0.284,-0.862 -0.442,-1.283 l -5.42,4.732 c 0,0.247 0.031,0.473 0.031,0.721 10e-4,0.32 -0.026,0.625 -0.031,0.946 z"
         id="path657"
         inkscape:connector-curvature="0"
         style="fill:#ffffff" />
      <polygon
         points="579.541,509.612 581.463,509.612 587.453,504.38 586.662,503.397 "
         id="polygon659"
         style="fill:#ffffff" />
      <path
         d="m 628.889,468.224 c -0.1,-0.469 -0.206,-0.937 -0.326,-1.395 l -6.42,5.61 c -0.053,0.609 -0.111,1.226 -0.184,1.83 l 6.93,-6.045 z"
         id="path661"
         inkscape:connector-curvature="0"
         style="fill:#ffffff" />
      <polygon
         points="576.154,514.233 576.154,512.566 568.755,519.022 568.755,520.695 "
         id="polygon663"
         style="fill:#ffffff" />
      <polygon
         points="560.118,526.562 560.118,528.234 564.583,524.344 562.661,524.344 "
         id="polygon665"
         style="fill:#ffffff" />
      <polygon
         points="576.154,517.908 576.154,516.231 568.755,522.688 568.755,524.344 566.861,524.344 560.118,530.228 560.118,530.794 561.381,530.794 "
         id="polygon667"
         style="fill:#ffffff" />
      <path
         d="m 629.398,471.44 c -0.059,-0.505 -0.115,-1.003 -0.199,-1.503 l -7.63,6.661 c -0.143,0.72 -0.315,1.42 -0.51,2.119 l 8.339,-7.277 z"
         id="path669"
         inkscape:connector-curvature="0"
         style="fill:#ffffff" />
      <polygon
         points="583.75,509.612 585.663,509.612 589.188,506.536 588.395,505.548 "
         id="polygon671"
         style="fill:#ffffff" />
      <polygon
         points="565.587,530.794 576.154,521.578 576.154,519.9 563.67,530.794 "
         id="polygon673"
         style="fill:#ffffff" />
      <path
         d="m 629.641,474.9 c -0.011,-0.536 -0.036,-1.078 -0.068,-1.609 l -9.423,8.224 c -0.362,0.941 -0.783,1.856 -1.234,2.75 l 10.725,-9.365 z"
         id="path675"
         inkscape:connector-curvature="0"
         style="fill:#ffffff" />
      <path
         d="m 601.896,499.117 0.058,-0.053 c -0.026,0.011 -0.047,0.021 -0.073,0.031 l 0.015,0.022 z"
         id="path677"
         inkscape:connector-curvature="0"
         style="fill:#ffffff" />
      <path
         d="m 588.006,509.559 c 0.654,-0.016 1.341,-0.016 1.979,-0.053 l 0.938,-0.814 -0.791,-0.983 -2.126,1.85 z"
         id="path679"
         inkscape:connector-curvature="0"
         style="fill:#ffffff" />
      <path
         d="m 594.846,507.256 -2.345,2.046 c 0.339,-0.036 0.71,-0.047 1.041,-0.085 l 0.396,0.5 1.678,-1.461 -0.77,-1 z"
         id="path681"
         inkscape:connector-curvature="0"
         style="fill:#ffffff" />
      <path
         d="m 607.337,496.362 -4.485,3.911 0.794,0.979 25.916,-22.614 c 0.043,-0.573 0.053,-1.152 0.068,-1.734 l -13.739,11.986 c -2.276,2.92 -5.116,5.422 -8.554,7.472 z"
         id="path683"
         inkscape:connector-curvature="0"
         style="fill:#ffffff" />
      <polygon
         points="569.785,530.794 576.154,525.242 576.154,523.566 567.873,530.794 "
         id="polygon685"
         style="fill:#ffffff" />
      <polygon
         points="573.993,530.794 576.154,528.912 576.154,527.236 572.078,530.794 "
         id="polygon687"
         style="fill:#ffffff" />
      <path
         d="m 629.014,482.782 c 0.122,-0.647 0.242,-1.289 0.326,-1.961 l -24.736,21.598 0.793,0.974 23.617,-20.611 z"
         id="path689"
         inkscape:connector-curvature="0"
         style="fill:#ffffff" />
      <polygon
         points="596.547,509.449 594.889,510.895 595.685,511.867 597.316,510.443 "
         id="polygon691"
         style="fill:#ffffff" />
      <path
         d="m 627.689,487.603 c 0.278,-0.757 0.521,-1.53 0.742,-2.313 l -22.078,19.265 0.795,0.973 20.541,-17.925 z"
         id="path693"
         inkscape:connector-curvature="0"
         style="fill:#ffffff" />
      <polygon
         points="598.241,511.637 596.62,513.04 597.414,514.028 599.009,512.635 "
         id="polygon695"
         style="fill:#ffffff" />
      <path
         d="m 609.546,505.438 c 1.487,-0.616 2.901,-1.288 4.232,-2.024 l 10.268,-8.959 c 0.147,-0.206 0.311,-0.4 0.453,-0.605 0.641,-0.962 1.204,-1.955 1.734,-2.975 l -16.687,14.563 z"
         id="path697"
         inkscape:connector-curvature="0"
         style="fill:#ffffff" />
      <polygon
         points="599.935,513.823 598.356,515.195 599.151,516.174 600.707,514.822 "
         id="polygon699"
         style="fill:#ffffff" />
      <polygon
         points="610.135,506.599 609.329,505.621 608.104,506.688 608.903,507.666 "
         id="polygon701"
         style="fill:#ffffff" />
      <polygon
         points="611.879,508.739 611.086,507.756 609.856,508.827 610.654,509.801 "
         id="polygon703"
         style="fill:#ffffff" />
      <polygon
         points="601.633,516.005 600.092,517.345 600.886,518.329 602.4,517.003 "
         id="polygon705"
         style="fill:#ffffff" />
      <polygon
         points="613.636,510.873 612.841,509.896 611.606,510.969 612.406,511.951 "
         id="polygon707"
         style="fill:#ffffff" />
      <polygon
         points="603.326,518.197 601.827,519.507 602.625,520.484 604.099,519.196 "
         id="polygon709"
         style="fill:#ffffff" />
      <polygon
         points="615.386,513.009 614.582,512.03 613.363,513.104 614.156,514.08 "
         id="polygon711"
         style="fill:#ffffff" />
      <polygon
         points="603.562,521.651 604.356,522.636 605.792,521.379 605.019,520.385 "
         id="polygon713"
         style="fill:#ffffff" />
      <polygon
         points="606.611,524.344 605.723,524.344 606.091,524.791 "
         id="polygon715"
         style="fill:#ffffff" />
      <polygon
         points="617.138,515.148 616.344,514.17 615.113,515.243 615.918,516.22 "
         id="polygon717"
         style="fill:#ffffff" />
      <polygon
         points="607.031,525.963 607.826,526.946 610.818,524.344 608.893,524.344 "
         id="polygon719"
         style="fill:#ffffff" />
      <polygon
         points="618.894,517.288 618.094,516.314 616.864,517.388 617.668,518.359 "
         id="polygon721"
         style="fill:#ffffff" />
      <polygon
         points="620.645,519.423 619.846,518.45 618.619,519.527 619.42,520.496 "
         id="polygon723"
         style="fill:#ffffff" />
      <polygon
         points="608.768,528.113 609.561,529.096 615.008,524.344 613.09,524.344 "
         id="polygon725"
         style="fill:#ffffff" />
      <polygon
         points="622.396,521.567 621.596,520.59 620.371,521.656 621.164,522.636 "
         id="polygon727"
         style="fill:#ffffff" />
      <polygon
         points="611.811,530.794 619.214,524.344 617.295,524.344 610.502,530.269 610.928,530.794 "
         id="polygon729"
         style="fill:#ffffff" />
      <polygon
         points="624.15,523.707 623.347,522.729 622.122,523.802 622.568,524.344 621.506,524.344 614.104,530.794 616.018,530.794 "
         id="polygon731"
         style="fill:#ffffff" />
      <polygon
         points="625.102,524.869 618.305,530.794 620.218,530.794 625.907,525.837 "
         id="polygon733"
         style="fill:#ffffff" />
      <polygon
         points="626.854,526.999 622.511,530.794 624.424,530.794 627.657,527.982 "
         id="polygon735"
         style="fill:#ffffff" />
      <polygon
         points="626.713,530.794 628.626,530.794 629.408,530.116 628.604,529.144 "
         id="polygon737"
         style="fill:#ffffff" />
      <path
         d="m 682.816,271.314 c -3.796,0 -6.656,2.24 -6.656,5.207 0,1.072 0.247,1.946 0.784,2.744 l 0.562,0.853 0.348,-0.105 0.453,-0.139 0.184,-0.049 c 0.467,-0.139 1.908,-0.563 3.075,-0.563 0.679,0 1.394,0.252 1.394,0.964 0,0.705 -0.332,1.297 -0.898,1.748 -0.537,0.429 -1.295,0.746 -2.252,0.914 -0.384,0.108 -0.824,0.175 -1.313,0.175 -0.395,0 -0.784,-0.033 -1.173,-0.062 -0.132,-0.008 -0.273,-0.011 -0.41,-0.024 -0.147,-0.018 -0.31,-0.042 -0.467,-0.06 -0.348,-0.046 -0.684,-0.096 -1.031,-0.167 -0.2,-0.036 -0.399,-0.08 -0.605,-0.126 -0.125,-0.034 -0.258,-0.066 -0.383,-0.104 -0.248,-0.058 -0.479,-0.121 -0.72,-0.192 0.251,0.105 0.521,0.219 0.781,0.326 4.354,1.803 9.854,4.075 11.463,4.739 0.3,0.126 0.479,0.197 0.479,0.197 0.184,-0.078 0.326,-0.176 0.5,-0.263 4.427,-2.163 5.179,-5.943 5.179,-7.595 -0.003,-4.961 -4.898,-8.418 -9.294,-8.418 z"
         id="path739"
         inkscape:connector-curvature="0"
         style="fill:#ffffff" />
      <path
         d="m 682.559,293.628 c -0.909,-0.368 -1.834,-0.738 -2.76,-1.102 -10.873,-4.301 -22.066,-8.733 -25.012,-18.732 -0.025,0.336 -0.03,0.658 -0.03,0.978 0,10.115 9.037,18.488 25.457,23.579 13.286,4.1 21.009,10.354 23.049,18.618 0.086,-0.599 0.127,-1.164 0.127,-1.643 0,-8.849 -7.008,-16.146 -20.831,-21.698 z"
         id="path741"
         inkscape:connector-curvature="0"
         style="fill:none" />
      <path
         d="m 686.439,287.645 c 0.173,-0.102 0.326,-0.211 0.489,-0.318 -0.174,0.087 -0.316,0.185 -0.5,0.263 0,0 -0.179,-0.071 -0.479,-0.197 -1.609,-0.664 -7.108,-2.937 -11.463,-4.739 -7.528,-2.09 -13.406,-8.787 -13.406,-13.128 0,-9.022 6.263,-13.405 19.144,-13.405 13.049,0 18.99,4.625 18.99,8.929 0,1.463 -1.65,3.24 -3.863,3.433 l -1.626,0.138 0.347,1.597 c 0.836,3.844 3.014,5.478 7.299,5.478 4.753,0 8.202,-3.831 8.202,-9.11 0,-3.813 -2.64,-8.004 -6.693,-10.934 3.202,-1.277 4.815,-3.23 4.815,-5.828 0,-2.641 -2.402,-4.636 -5.604,-4.636 h -1.199 l -0.211,1.188 c -0.278,1.565 -1.13,3.167 -5.357,3.167 -1.408,0 -3.396,-0.13 -5.82,-0.381 -2.381,-0.121 -5.204,-0.261 -8.564,-0.261 -21.73,0 -33.092,12.693 -33.092,25.232 0,12.57 6.226,20.369 22.702,27.88 -0.005,0.004 -0.011,0.007 -0.016,0.012 2.298,0.95 7.225,2.983 11.078,4.585 7.551,1.233 14.869,8.242 14.869,13.322 0,10.542 -6.31,15.452 -19.863,15.452 -15.012,0 -22.009,-7.844 -22.009,-13.147 0,-1.107 1.346,-2.146 2.154,-2.146 0.811,0 1.352,0.117 1.872,0.238 0.211,0.051 0.41,0.088 0.611,0.126 l 1.786,0.317 -0.093,-1.81 c -0.196,-3.318 -2.366,-6.859 -7.92,-6.859 -4.227,0 -8.769,2.851 -8.769,9.106 0,1.463 0.473,6.197 6.004,11.167 -3.355,1.145 -5.284,3.312 -5.284,6.107 0,3.481 2.54,5.915 6.188,5.915 h 1.432 v -1.437 c 0,-2.561 0.982,-3.42 3.89,-3.42 1.036,0 2.472,0.331 4.279,0.749 3.491,0.819 8.76,2.059 16.578,2.059 27.13,0 33.244,-20.391 33.244,-27.531 10e-4,-11.477 -7.905,-20.39 -24.142,-27.173 z m -6.225,10.706 c -16.42,-5.091 -25.457,-13.464 -25.457,-23.579 0,-0.319 0.005,-0.642 0.03,-0.978 2.945,9.999 14.139,14.432 25.012,18.732 0.926,0.363 1.851,0.733 2.76,1.102 13.823,5.552 20.831,12.849 20.831,21.698 0,0.479 -0.041,1.044 -0.127,1.643 -2.04,-8.265 -9.763,-14.519 -23.049,-18.618 z"
         id="path743"
         inkscape:connector-curvature="0"
         style="fill:#ffffff" />
      <path
         d="m 681.234,306.557 c 0.235,0.062 0.484,0.115 0.715,0.191 -0.105,-0.05 -0.226,-0.092 -0.337,-0.142 -0.163,-0.026 -0.331,-0.06 -0.51,-0.089 0.043,0.018 0.089,0.03 0.132,0.04 z"
         id="path745"
         inkscape:connector-curvature="0"
         style="fill:#ffffff" />
      <path
         d="m 678.705,309.795 -0.557,-0.834 -0.337,0.101 -0.637,0.189 c -0.431,0.125 -1.63,0.464 -2.724,0.537 0.247,0.38 0.783,0.526 1.311,0.526 1.077,0 2.324,-0.338 2.944,-0.519 z"
         id="path747"
         inkscape:connector-curvature="0"
         style="fill:#ffffff" />
      <path
         d="m 670.534,302.021 c -0.336,-0.138 -0.62,-0.255 -0.831,-0.339 -0.294,-0.126 -0.288,-0.201 -0.288,-0.201 -4.906,2.115 -5.868,6.147 -5.868,7.865 0,3.566 2.545,6.327 5.605,7.614 1.193,0.503 2.455,0.8 3.69,0.8 3.796,0 6.662,-2.237 6.662,-5.208 0,-1.072 -0.254,-1.943 -0.79,-2.746 l -0.01,-0.012 c -0.62,0.181 -1.867,0.52 -2.943,0.52 -0.527,0 -1.063,-0.146 -1.311,-0.526 -0.12,0.007 -0.247,0.022 -0.362,0.022 -0.668,0 -1.393,-0.247 -1.393,-0.958 0,-1.371 1.183,-2.317 3.153,-2.661 0.385,-0.109 0.826,-0.177 1.314,-0.177 0.396,0 0.789,0.034 1.173,0.063 0.138,0.008 0.269,0.013 0.404,0.021 0.158,0.018 0.311,0.037 0.469,0.058 0.347,0.048 0.688,0.102 1.03,0.169 0.204,0.042 0.4,0.084 0.604,0.126 0.084,0.025 0.173,0.046 0.258,0.066 0.179,0.029 0.347,0.062 0.51,0.089 -3.851,-1.601 -8.778,-3.634 -11.076,-4.585 z"
         id="path749"
         inkscape:connector-curvature="0"
         style="fill:#ffffff" />
      <rect
         x="583.87299"
         y="265.828"
         width="31.507999"
         height="17.281"
         id="rect751"
         style="fill:none" />
      <path
         d="m 615.381,265.828 v 17.281 h -31.508 v 13.816 h 32.618 l 17.177,-12.878 v -19.842 c 0,-8.552 -8.544,-15.506 -19.043,-15.506 H 584.52 c -0.219,0 -0.428,0.026 -0.646,0.03 v 17.098 h 31.507 z"
         id="path753"
         inkscape:connector-curvature="0"
         style="fill:#ffffff" />
      <rect
         x="583.76599"
         y="265.828"
         width="0.107"
         height="17.281"
         id="rect755"
         style="fill:#ffffff" />
      <rect
         x="583.76599"
         y="296.92599"
         width="0.107"
         height="29.358"
         id="rect757"
         style="fill:#ffffff" />
      <path
         d="m 612.012,419.244 c 0,2.422 0.762,4.382 2.26,5.881 1.494,1.494 3.381,2.219 5.643,2.219 2.881,0 5.205,-0.967 6.892,-2.954 1.698,-1.956 2.524,-4.585 2.524,-7.861 0,-3.122 -0.799,-5.677 -2.092,-7.899 -1.458,-2.511 -5.569,-4.861 -5.526,-4.903 -0.2,-0.096 -0.385,-0.219 -0.584,-0.306 l -1.382,1.329 c 0.235,0.112 0.451,0.242 0.688,0.364 0.005,-0.014 0.025,-0.025 0.036,-0.034 1.956,0.927 3.449,2.12 4.447,3.616 0.953,1.492 1.463,2.816 1.463,4.04 0,0.377 -0.059,0.649 -0.158,0.833 -0.084,0.412 -0.231,0.692 -0.525,0.692 -0.61,0 -1.552,-0.466 -2.819,-1.37 -1.288,-0.93 -2.628,-1.404 -4.074,-1.404 -0.626,0 -1.215,0.055 -1.771,0.151 -1.251,0.356 -2.308,0.978 -3.091,1.936 -1.301,1.554 -1.931,3.41 -1.931,5.67 z"
         id="path759"
         inkscape:connector-curvature="0"
         style="fill:#ffffff" />
      <path
         d="m 583.766,296.926 h 0.107 V 283.11 h -0.107 v -17.281 h 0.107 V 248.73 c -10.202,0.28 -18.399,7.104 -18.399,15.476 v 63.704 c 0,8.369 8.197,15.195 18.399,15.477 v -17.103 h -0.107 v -29.358 z"
         id="path761"
         inkscape:connector-curvature="0"
         style="fill:#ffffff" />
      <g
         id="g763">
        <path
           d="m 610.665,326.284 h -26.792 v 17.103 c 0.219,0.008 0.428,0.028 0.646,0.028 h 30.105 c 10.499,0 19.043,-6.959 19.043,-15.505 v -1.626 h -18.287 -4.715 z"
           id="path765"
           inkscape:connector-curvature="0"
           style="fill:#ffffff" />
        <polygon
           points="615.381,313.272 615.381,326.284 633.668,326.284 633.668,299.377 "
           id="polygon767"
           style="fill:#ffffff" />
      </g>
      <path
         d="m 542.366,357.844 c -3.748,0 -6.604,2.749 -8.528,8.231 -1.927,5.501 -2.889,11.808 -2.889,18.938 0,8.885 0.996,16.084 2.986,21.523 1.961,5.444 5.108,8.164 9.425,8.164 2.623,0 4.345,-1.229 5.178,-3.688 0.865,-2.419 1.294,-5.9 1.294,-10.384 v -35.322 c -0.368,-2.623 -1.162,-4.513 -2.324,-5.711 -1.164,-1.157 -2.887,-1.751 -5.142,-1.751 z"
         id="path769"
         inkscape:connector-curvature="0"
         style="fill:none" />
      <path
         d="m 627.069,382.891 c 0,-2.158 -1.052,-3.718 -3.149,-4.715 -2.119,-0.993 -4.842,-1.458 -8.224,-1.458 l -10.284,-0.429 -10.29,0.429 c -3.281,0 -5.968,0.499 -8.098,1.53 -2.086,1.021 -3.151,2.618 -3.151,4.78 0,2.184 1.033,3.746 3.084,4.707 2.087,0.983 4.815,1.488 8.165,1.488 l 10.29,0.431 10.284,-0.431 c 3.443,0 6.235,-0.468 8.298,-1.393 2.045,-0.955 3.075,-2.584 3.075,-4.939 z"
         id="path771"
         inkscape:connector-curvature="0"
         style="fill:none" />
      <path
         d="m 593.958,496.704 16.519,22.108 -2.514,1.883 -17.233,-23.045 c -4.088,1.04 -7.091,1.215 -7.185,1.226 h -21.721 v 20.873 h -0.391 -2.756 v -79.472 h 26.103 c 0.3,0 29.812,0.337 29.812,29.477 10e-4,16.808 -11.613,23.943 -20.634,26.95 z m 28.164,27.098 -0.958,-1.166 -0.793,-0.979 -0.951,-1.16 -0.801,-0.969 -0.951,-1.168 -0.804,-0.972 -0.946,-1.168 -0.805,-0.977 -0.957,-1.163 -0.793,-0.977 -0.957,-1.152 -0.8,-0.982 -0.952,-1.168 -0.798,-0.974 -0.953,-1.161 -0.799,-0.979 -0.956,-1.161 -0.795,-0.973 -0.957,-1.161 -0.793,-0.974 -0.958,-1.166 -0.794,-0.979 -0.956,-1.156 -0.016,-0.021 c 0.026,-0.01 0.047,-0.021 0.073,-0.031 1.946,-0.794 3.712,-1.708 5.384,-2.702 3.438,-2.051 6.278,-4.553 8.554,-7.472 0.395,-0.505 0.847,-0.967 1.204,-1.498 0.679,-1.004 1.273,-2.055 1.82,-3.128 0.451,-0.894 0.872,-1.809 1.234,-2.75 0.347,-0.91 0.652,-1.841 0.91,-2.797 0.194,-0.699 0.367,-1.399 0.51,-2.119 0.153,-0.763 0.289,-1.54 0.39,-2.329 0.072,-0.604 0.131,-1.221 0.184,-1.83 0.053,-0.684 0.085,-1.377 0.095,-2.087 0.005,-0.32 0.031,-0.626 0.031,-0.946 0,-0.248 -0.031,-0.474 -0.031,-0.721 -0.01,-0.647 -0.053,-1.283 -0.095,-1.914 -0.03,-0.525 -0.058,-1.057 -0.116,-1.572 -0.067,-0.594 -0.168,-1.178 -0.263,-1.767 -0.084,-0.487 -0.131,-0.987 -0.231,-1.467 -0.115,-0.557 -0.284,-1.083 -0.425,-1.624 -0.121,-0.457 -0.216,-0.92 -0.357,-1.367 -0.158,-0.51 -0.354,-1.01 -0.542,-1.515 -0.153,-0.421 -0.31,-0.841 -0.484,-1.251 -0.104,-0.264 -0.188,-0.541 -0.304,-0.799 -0.102,-0.217 -0.232,-0.416 -0.337,-0.631 -0.189,-0.395 -0.4,-0.772 -0.604,-1.152 -0.247,-0.451 -0.469,-0.915 -0.736,-1.356 -0.215,-0.356 -0.479,-0.688 -0.715,-1.04 -0.285,-0.421 -0.558,-0.842 -0.862,-1.242 -0.247,-0.342 -0.521,-0.661 -0.784,-0.982 -1.293,-1.561 -2.724,-3.008 -4.358,-4.327 -3.695,-2.955 -8.239,-5.247 -13.637,-6.856 -5.397,-1.613 -11.591,-2.423 -18.589,-2.423 h -26.079 v 88.944 h 7.4 0.261 2.282 1.922 2.278 1.894 v -1.656 -1.992 -1.673 -1.997 -1.673 -1.992 -1.672 -1.992 -1.678 -1.997 -1.673 -1.198 h 1.375 1.921 2.276 1.92 2.293 0.257 c 0.589,0 1.138,-0.026 1.709,-0.043 0.799,-0.016 1.601,-0.036 2.371,-0.079 0.726,-0.041 1.424,-0.104 2.121,-0.173 0.376,-0.042 0.775,-0.053 1.146,-0.1 l 0.518,0.642 0.791,0.982 0.941,1.168 0.794,0.988 0.944,1.172 0.791,0.983 12.602,15.652 h 2.197 0.889 2.281 1.926 2.271 1.918 2.287 1.919 2.292 1.062 l -0.446,-0.542 z"
         id="path773"
         inkscape:connector-curvature="0"
         style="fill:#ffffff" />
      <path
         d="m 493.493,524.133 9.855,-27.613 5.355,-14.652 c 3.948,-10.427 13.95,-9.018 13.95,-9.018 0,0 -10.002,-1.267 -5.633,-13.954 4.369,-12.676 7.605,-20.431 7.605,-20.431 0,0 1.977,0.426 2.536,1.271 l -4.371,11.978 c 0,0 -3.797,8.875 2.825,11.551 5.581,2.261 8.959,-4.106 9.969,-7.755 0.079,-0.398 0.161,-0.794 0.219,-1.188 1.517,-10.553 -6.23,-19.096 -17.298,-19.096 -11.068,0 -21.268,8.543 -22.782,19.096 -0.982,6.856 1.946,12.86 7.161,16.226 -15.126,2.461 -26.462,14.343 -26.462,29.044 0,11.546 6.996,21.824 17.309,27.408 0.465,-0.541 0.936,-1.089 1.394,-1.63 -1.075,-0.605 -1.632,-1.237 -1.632,-1.237 z"
         id="path775"
         inkscape:connector-curvature="0"
         style="fill:#ffffff" />
      <path
         d="m 489.689,521.179 30.287,-83.698 c 0,0 0.849,-0.709 2.542,0.138 L 491.8,522.73 c 10e-4,-10e-4 -1.688,-0.71 -2.111,-1.551 z"
         id="path777"
         inkscape:connector-curvature="0"
         style="fill:#ffffff" />
      <g
         id="g779">
        <path
           d="m 528.507,481.929 c -0.951,-0.179 -1.951,-0.309 -3.031,-0.347 -0.294,-0.01 -0.555,0.027 -0.839,0.027 l -19.03,17.418 -2.053,5.737 24.953,-22.835 z"
           id="path781"
           inkscape:connector-curvature="0"
           style="fill:#ffffff" />
        <path
           d="m 543.104,497.303 -36.864,33.738 c 1.223,0.164 2.464,0.301 3.723,0.349 0.008,0 0.023,0 0.031,0 l 33.46,-30.626 c -0.047,-1.173 -0.165,-2.326 -0.35,-3.461 z"
           id="path783"
           inkscape:connector-curvature="0"
           style="fill:#ffffff" />
        <path
           d="m 521.201,481.946 c -10.474,2.092 -14.044,12.738 -14.044,12.738 l -0.058,0.168 14.102,-12.906 z"
           id="path785"
           inkscape:connector-curvature="0"
           style="fill:#ffffff" />
        <path
           d="m 533.814,483.765 c -0.881,-0.489 -1.856,-0.888 -2.9,-1.235 l -28.851,26.409 -2.066,5.773 33.817,-30.947 z"
           id="path787"
           inkscape:connector-curvature="0"
           style="fill:#ffffff" />
        <path
           d="m 497.234,522.435 -0.724,2.035 41.197,-37.708 c -0.626,-0.646 -1.325,-1.258 -2.101,-1.835 l -37.106,33.965 -0.434,1.215 c -0.086,0.772 -0.395,1.555 -0.832,2.328 z"
           id="path789"
           inkscape:connector-curvature="0"
           style="fill:#ffffff" />
        <path
           d="m 542.842,507.992 c 0.311,-1.42 0.483,-2.892 0.573,-4.391 l -30.309,27.745 c 1.668,-0.079 3.287,-0.299 4.877,-0.604 l 24.859,-22.75 z"
           id="path791"
           inkscape:connector-curvature="0"
           style="fill:#ffffff" />
        <path
           d="m 535.983,520.968 c 2.423,-2.645 4.327,-5.694 5.62,-9.037 l -19.372,17.733 c 3.763,-1.225 7.19,-3.065 10.146,-5.394 l 3.606,-3.302 z"
           id="path793"
           inkscape:connector-curvature="0"
           style="fill:#ffffff" />
        <path
           d="m 539.069,488.329 -43.297,39.626 c 0.825,0.385 1.656,0.747 2.516,1.073 l 42.199,-38.623 c -0.416,-0.683 -0.882,-1.387 -1.418,-2.076 z"
           id="path795"
           inkscape:connector-curvature="0"
           style="fill:#ffffff" />
        <path
           d="m 542.556,494.984 c -0.242,-0.752 -0.597,-1.677 -1.065,-2.692 l -40.96,37.488 c 1.031,0.315 2.085,0.562 3.149,0.783 l 38.876,-35.579 z"
           id="path797"
           inkscape:connector-curvature="0"
           style="fill:#ffffff" />
      </g>
      <path
         d="m 621.128,403.42 c 0.199,0.087 0.384,0.21 0.584,0.306 5.062,-5.334 7.618,-12.22 7.618,-20.697 0,-7.605 -2.183,-14.076 -6.604,-19.482 -4.41,-5.405 -10.221,-8.096 -17.449,-8.096 -4.212,0 -7.967,0.965 -11.177,2.888 -3.261,1.925 -6.01,4.609 -8.264,8.096 -0.635,-4.312 -2.591,-8.032 -5.875,-11.113 -3.293,-3.084 -7.234,-4.643 -11.911,-4.643 -3.854,0 -7.072,1.061 -9.755,3.152 -2.658,2.12 -5.046,5.035 -7.199,8.786 -0.562,-2.887 -1.598,-5.309 -3.057,-7.228 -1.462,-1.929 -3.418,-2.896 -5.867,-2.896 -5.182,0 -8.83,3.223 -10.883,9.665 -2.094,6.4 -3.121,13.899 -3.121,22.43 0,10.401 1.924,19.458 5.768,27.229 3.891,7.733 9.929,11.609 18.123,11.609 6.633,0 12.138,-2.326 16.521,-6.897 4.384,-4.618 6.571,-10.753 6.571,-18.451 v -29.953 c 0,-1.69 0.397,-3.187 1.123,-4.51 0.67,-1.396 1.658,-2.091 2.949,-2.091 1.832,0 3.149,0.862 3.993,2.652 0.822,1.789 1.12,3.679 0.96,5.641 -1.696,4.351 -2.556,8.761 -2.556,13.271 0,7.325 2.188,13.729 6.567,19.205 4.353,5.443 10.086,8.16 17.225,8.16 2.914,0 5.699,-0.467 8.361,-1.392 2.665,-0.959 4.873,-2.275 6.661,-3.947 -0.237,-0.122 -0.453,-0.252 -0.688,-0.364 l 1.382,-1.33 z m -71.296,-2.79 c 0,4.483 -0.429,7.965 -1.294,10.384 -0.833,2.459 -2.555,3.688 -5.178,3.688 -4.316,0 -7.464,-2.72 -9.425,-8.164 -1.99,-5.439 -2.986,-12.639 -2.986,-21.523 0,-7.131 0.962,-13.438 2.889,-18.938 1.924,-5.482 4.78,-8.231 8.528,-8.231 2.255,0 3.978,0.594 5.142,1.753 1.162,1.198 1.956,3.088 2.324,5.711 v 35.32 z m 55.58,-10.976 -10.29,-0.431 c -3.35,0 -6.078,-0.505 -8.165,-1.488 -2.051,-0.961 -3.084,-2.523 -3.084,-4.707 0,-2.162 1.065,-3.759 3.151,-4.78 2.13,-1.031 4.816,-1.53 8.098,-1.53 l 10.29,-0.429 10.284,0.429 c 3.382,0 6.104,0.465 8.224,1.458 2.098,0.997 3.149,2.557 3.149,4.715 0,2.355 -1.03,3.984 -3.075,4.94 -2.062,0.925 -4.854,1.393 -8.298,1.393 l -10.284,0.43 z"
         id="path799"
         inkscape:connector-curvature="0"
         style="fill:#ffffff" />
      <polygon
         points="661.67,368.015 661.67,414.273 677.379,399.896 661.77,368.015 "
         id="polygon801"
         style="fill:none" />
      <polygon
         points="694.452,408.574 694.353,408.574 686.141,391.88 677.379,399.896 688.789,423.175 706.371,423.175 706.371,373.361 694.452,384.274 "
         id="polygon803"
         style="fill:#ffffff" />
      <polygon
         points="661.67,414.273 651.943,423.175 669.515,423.175 669.515,414.588 661.67,414.588 "
         id="polygon805"
         style="fill:#ffffff" />
      <g
         id="g807">
        <polygon
           points="710.051,363.435 714.126,363.435 714.126,359.713 "
           id="polygon809"
           style="fill:#ffffff" />
        <polygon
           points="666.224,377.112 667.469,379.646 676.203,371.656 674.946,369.12 "
           id="polygon811"
           style="fill:#ffffff" />
        <polygon
           points="686.107,358.907 686.107,362.579 694.562,354.843 690.551,354.843 "
           id="polygon813"
           style="fill:#ffffff" />
        <polygon
           points="680.693,380.8 679.383,378.139 670.646,386.143 671.954,388.804 "
           id="polygon815"
           style="fill:#ffffff" />
        <polygon
           points="688.248,363.435 692.386,363.435 701.766,354.843 697.627,354.843 "
           id="polygon817"
           style="fill:#ffffff" />
        <polygon
           points="682.964,385.417 681.649,382.735 672.9,390.744 674.215,393.43 "
           id="polygon819"
           style="fill:#ffffff" />
        <polygon
           points="694.452,364.348 694.452,368.207 709.047,354.843 704.831,354.843 "
           id="polygon821"
           style="fill:#ffffff" />
        <polygon
           points="678.432,376.197 677.149,373.592 668.415,381.582 669.693,384.192 "
           id="polygon823"
           style="fill:#ffffff" />
        <polygon
           points="644.672,354.843 641.501,354.843 641.501,357.739 "
           id="polygon825"
           style="fill:#ffffff" />
        <polygon
           points="641.501,363.435 642.363,363.435 651.755,354.843 647.736,354.843 641.501,360.551 "
           id="polygon827"
           style="fill:#ffffff" />
        <polygon
           points="714.126,354.843 712.117,354.843 694.452,371.019 694.452,374.904 714.126,356.9 "
           id="polygon829"
           style="fill:#ffffff" />
        <polygon
           points="641.501,419.478 641.501,423.175 641.718,423.175 661.67,404.907 661.67,401.014 649.751,411.932 649.751,414.588 646.844,414.588 "
           id="polygon831"
           style="fill:#ffffff" />
        <polygon
           points="669.683,358.396 668.357,355.715 649.751,372.745 649.751,376.63 "
           id="polygon833"
           style="fill:#ffffff" />
        <polygon
           points="658.952,354.843 654.82,354.843 645.434,363.435 649.572,363.435 "
           id="polygon835"
           style="fill:#ffffff" />
        <polygon
           points="666.234,354.843 662.017,354.843 649.751,366.078 649.751,369.934 "
           id="polygon837"
           style="fill:#ffffff" />
        <polygon
           points="661.67,372.28 661.67,368.528 649.751,379.441 649.751,383.192 "
           id="polygon839"
           style="fill:#ffffff" />
        <polygon
           points="683.92,387.354 675.166,395.365 676.435,397.955 685.183,389.942 "
           id="polygon841"
           style="fill:#ffffff" />
        <polygon
           points="661.67,411.466 661.67,407.711 644.788,423.175 648.879,423.175 "
           id="polygon843"
           style="fill:#ffffff" />
        <polygon
           points="706.371,366.803 694.452,377.716 694.452,381.466 706.371,370.55 "
           id="polygon845"
           style="fill:#ffffff" />
        <polygon
           points="641.501,414.588 641.501,416.667 643.783,414.588 "
           id="polygon847"
           style="fill:#ffffff" />
        <rect
           x="700.41199"
           y="370.73801"
           width="0"
           height="16.16"
           id="rect849"
           style="fill:#ffffff" />
        <polygon
           points="677.379,399.896 682.711,395.015 677.379,399.896 "
           id="polygon851"
           style="fill:#ffffff" />
        <rect
           x="656.80701"
           y="412.13199"
           width="0"
           height="13.185"
           id="rect853"
           style="fill:#ffffff" />
        <polygon
           points="665.271,375.172 674,367.185 672.853,364.859 664.131,372.841 "
           id="polygon855"
           style="fill:#ffffff" />
        <polygon
           points="661.67,398.207 661.67,394.343 649.751,405.265 649.751,409.118 "
           id="polygon857"
           style="fill:#ffffff" />
        <polygon
           points="661.912,368.308 663.18,370.896 671.901,362.918 670.629,360.334 "
           id="polygon859"
           style="fill:#ffffff" />
        <polygon
           points="687.48,354.843 686.107,354.843 686.107,356.1 "
           id="polygon861"
           style="fill:#ffffff" />
        <polygon
           points="661.67,375.088 649.751,386.004 649.751,389.373 661.67,378.466 "
           id="polygon863"
           style="fill:#ffffff" />
        <polygon
           points="661.67,384.943 661.67,381.271 649.751,392.186 649.751,395.861 "
           id="polygon865"
           style="fill:#ffffff" />
        <polygon
           points="661.67,391.537 661.67,387.756 649.751,398.667 649.751,402.447 "
           id="polygon867"
           style="fill:#ffffff" />
      </g>
      <g
         id="g869">
        <g
           id="g871">
          <g
             id="g873">
            <path
               d="m 587.009,566.353 c -1.051,0 -2.802,-0.052 -4.727,-0.079 v -17.351 c 1.362,-0.031 3.337,-0.079 5.447,-0.079 3.78,0 5.733,1.535 5.733,4.218 0,1.777 -1.183,3.338 -2.96,3.958 v 0.053 c 2.264,0.437 3.32,2.155 3.32,3.96 10e-4,2.26 -1.492,5.32 -6.813,5.32 z m 0.255,-15.274 c -0.768,0 -1.512,0.031 -2.184,0.047 v 5.148 c 0.463,0.025 0.898,0.025 1.493,0.025 2.595,0 3.959,-1.056 3.959,-2.797 0,-1.419 -0.8,-2.423 -3.268,-2.423 z m -0.618,7.302 c -0.284,0 -1.181,0 -1.566,0.027 v 5.526 c 0.436,0.079 1.133,0.126 2.028,0.126 2.548,0 3.755,-1.23 3.755,-2.977 0,-1.985 -1.769,-2.702 -4.217,-2.702 z"
               id="path875"
               inkscape:connector-curvature="0"
               style="fill:#ffffff" />
            <path
               d="m 604.246,560.08 v 6.193 h -2.803 v -6.193 l -5.425,-11.157 h 3.059 l 2.576,5.475 c 0.457,1.024 0.867,2.002 1.231,2.933 h 0.046 c 0.39,-1.03 0.905,-2.135 1.44,-3.238 l 2.44,-5.169 h 2.959 l -5.523,11.156 z"
               id="path877"
               inkscape:connector-curvature="0"
               style="fill:#ffffff" />
          </g>
        </g>
        <g
           id="g879">
          <path
             d="m 483.961,606.295 -2.09,9.05 h 1.759 l -0.292,1.271 h -4.695 l 0.311,-1.271 h 1.524 l 2.358,-10.164 h -1.723 l 0.295,-1.283 h 2.918 l 4.89,9.731 1.956,-8.448 h -1.782 l 0.315,-1.283 h 4.616 l -0.289,1.283 h -1.491 l -2.646,11.498 h -0.713 l -5.221,-10.384 z"
             id="path881"
             inkscape:connector-curvature="0"
             style="fill:#ffffff" />
          <path
             d="m 495.412,615.345 h 1.7 l 2.341,-10.164 h -1.762 l 0.294,-1.283 h 4.891 l -0.29,1.283 h -1.7 l -2.343,10.164 h 1.765 l -0.316,1.271 h -4.889 l 0.309,-1.271 z"
             id="path883"
             inkscape:connector-curvature="0"
             style="fill:#ffffff" />
          <path
             d="m 511.106,609.465 2.805,5.88 h 1.74 l -0.292,1.271 h -2.474 l -2.899,-6.281 -2.105,1.782 -0.757,3.229 h 1.761 l -0.31,1.271 h -4.725 l 0.318,-1.271 h 1.527 l 2.354,-10.164 h -1.718 l 0.292,-1.283 h 4.638 l -0.289,1.257 h -1.491 l -1.232,5.353 6.181,-5.353 h -1.644 l 0.271,-1.257 h 4.816 l -0.291,1.283 h -1.39 l -5.086,4.283 z"
             id="path885"
             inkscape:connector-curvature="0"
             style="fill:#ffffff" />
          <path
             d="m 518.791,615.345 h 1.703 l 2.343,-10.164 h -1.764 l 0.291,-1.283 h 4.89 l -0.289,1.283 h -1.701 l -2.339,10.164 h 1.755 l -0.31,1.271 h -4.89 l 0.311,-1.271 z"
             id="path887"
             inkscape:connector-curvature="0"
             style="fill:#ffffff" />
          <path
             d="m 530.252,615.345 h 1.644 l 2.337,-10.19 h -3.145 l -0.465,2.01 h -1.377 L 530,603.898 h 10.497 l -0.749,3.267 h -1.378 l 0.465,-2.01 h -3.149 l -2.357,10.19 h 1.835 l -0.311,1.271 h -4.895 l 0.294,-1.271 z"
             id="path889"
             inkscape:connector-curvature="0"
             style="fill:#ffffff" />
          <path
             d="m 540.163,615.345 h 1.159 l 6.075,-10.19 h -1.514 l 0.289,-1.257 h 5.841 l -0.288,1.257 h -1.451 l 1.354,10.19 h 1.354 l -0.312,1.271 h -4.154 l 0.29,-1.255 h 1.411 l -0.389,-3.124 h -5.18 l -1.853,3.124 h 1.674 l -0.305,1.255 h -4.307 l 0.306,-1.271 z m 9.489,-4.35 -0.754,-5.935 -3.52,5.935 h 4.274 z"
             id="path891"
             inkscape:connector-curvature="0"
             style="fill:#ffffff" />
          <path
             d="m 564.764,615.345 h 1.528 l 2.825,-10.164 h -1.762 l 0.295,-1.283 h 3.01 l 2.13,8.701 6.049,-8.701 h 3.058 l -0.292,1.283 h -1.585 l -1.896,10.164 h 1.761 l -0.31,1.271 h -4.677 l 0.294,-1.271 h 1.524 l 1.735,-8.892 -5.994,8.507 h -0.252 l -2.158,-8.507 -2.34,8.892 h 1.717 l -0.289,1.271 h -4.68 l 0.309,-1.271 z"
             id="path893"
             inkscape:connector-curvature="0"
             style="fill:#ffffff" />
          <path
             d="m 583.468,615.345 h 1.525 l 2.36,-10.164 h -1.722 l 0.286,-1.283 h 9.262 l -0.75,3.113 h -1.38 l 0.429,-1.856 h -4.692 l -1.007,4.369 h 4.083 l -0.273,1.236 h -4.104 l -1.062,4.601 h 4.72 l 0.446,-1.852 h 1.369 l -0.712,3.106 h -9.093 l 0.315,-1.27 z"
             id="path895"
             inkscape:connector-curvature="0"
             style="fill:#ffffff" />
          <path
             d="m 596.663,615.345 h 1.53 l 2.361,-10.164 h -1.725 l 0.289,-1.283 h 4.722 l -0.288,1.283 h -1.568 l -0.987,4.284 h 6.901 l 0.969,-4.284 h -1.762 l 0.311,-1.283 h 4.716 l -0.289,1.283 h -1.529 l -2.361,10.164 h 1.724 l -0.304,1.271 h -4.728 l 0.29,-1.271 h 1.566 l 1.109,-4.601 h -6.924 l -1.062,4.601 h 1.762 l -0.29,1.271 h -4.74 l 0.307,-1.271 z"
             id="path897"
             inkscape:connector-curvature="0"
             style="fill:#ffffff" />
          <path
             d="m 616.128,615.345 h 1.635 l 2.346,-10.19 h -3.155 l -0.462,2.01 h -1.373 l 0.757,-3.267 h 10.489 l -0.752,3.267 h -1.378 l 0.475,-2.01 h -3.155 l -2.351,10.19 h 1.83 l -0.305,1.271 h -4.895 l 0.294,-1.271 z"
             id="path899"
             inkscape:connector-curvature="0"
             style="fill:#ffffff" />
          <path
             d="m 626.034,615.345 h 1.156 l 6.071,-10.19 h -1.508 l 0.289,-1.257 h 5.842 l -0.29,1.257 h -1.451 l 1.352,10.19 h 1.352 l -0.311,1.271 h -4.158 l 0.294,-1.255 h 1.41 l -0.385,-3.124 h -5.18 l -1.855,3.124 h 1.678 l -0.306,1.255 h -4.311 l 0.311,-1.271 z m 9.495,-4.35 -0.758,-5.935 -3.522,5.935 h 4.28 z"
             id="path901"
             inkscape:connector-curvature="0"
             style="fill:#ffffff" />
          <path
             d="m 651.103,613.935 c 0,-0.793 0.494,-1.336 1.157,-1.336 0.572,0 0.987,0.484 0.987,0.941 0,0.41 -0.194,0.742 -0.546,0.979 0.405,0.531 1.393,1.062 2.902,1.062 1.472,0 2.706,-0.898 2.706,-2.224 0,-1.109 -0.93,-1.766 -2.181,-2.502 -1.584,-0.921 -3.002,-1.893 -3.002,-3.733 0,-1.809 1.666,-3.433 4.121,-3.433 2.183,0 3.886,1.272 3.886,2.565 0,0.814 -0.525,1.318 -1.126,1.318 -0.577,0 -0.982,-0.451 -0.982,-0.987 0,-0.29 0.152,-0.614 0.478,-0.847 -0.304,-0.374 -1.118,-0.795 -2.291,-0.795 -1.567,0 -2.593,0.926 -2.593,2.088 0,1.141 0.905,1.762 2.355,2.607 1.451,0.868 2.824,1.836 2.824,3.618 0,2.045 -1.804,3.575 -4.29,3.575 -2.549,10e-4 -4.405,-1.545 -4.405,-2.896 z"
             id="path903"
             inkscape:connector-curvature="0"
             style="fill:#ffffff" />
          <path
             d="m 663.269,615.345 h 1.53 l 2.359,-10.164 h -1.724 l 0.295,-1.283 h 4.716 l -0.289,1.283 h -1.572 l -0.982,4.284 h 6.908 l 0.962,-4.284 h -1.761 l 0.31,-1.283 h 4.716 l -0.289,1.283 h -1.524 l -2.36,10.164 h 1.719 l -0.305,1.271 h -4.723 l 0.29,-1.271 h 1.566 l 1.104,-4.601 h -6.924 l -1.062,4.601 h 1.76 l -0.288,1.271 h -4.738 l 0.306,-1.271 z"
             id="path905"
             inkscape:connector-curvature="0"
             style="fill:#ffffff" />
          <path
             d="m 679.441,615.345 h 1.161 l 6.079,-10.19 h -1.51 l 0.278,-1.257 h 5.847 l -0.295,1.257 h -1.444 l 1.352,10.19 h 1.354 l -0.314,1.271 h -4.158 l 0.293,-1.255 h 1.41 l -0.385,-3.124 h -5.183 l -1.851,3.124 h 1.677 l -0.3,1.255 h -4.317 l 0.306,-1.271 z m 9.49,-4.35 -0.751,-5.935 -3.518,5.935 h 4.269 z"
             id="path907"
             inkscape:connector-curvature="0"
             style="fill:#ffffff" />
          <path
             d="m 695.576,615.345 h 1.525 l 2.361,-10.164 h -1.725 l 0.294,-1.283 h 4.716 l -0.289,1.283 h -1.566 l -0.983,4.284 h 6.898 l 0.973,-4.284 h -1.762 l 0.305,-1.283 h 4.717 l -0.285,1.283 h -1.535 l -2.354,10.164 h 1.719 l -0.304,1.271 h -4.717 l 0.284,-1.271 h 1.572 l 1.099,-4.601 h -6.924 l -1.058,4.601 h 1.757 l -0.29,1.271 h -4.743 l 0.315,-1.271 z"
             id="path909"
             inkscape:connector-curvature="0"
             style="fill:#ffffff" />
        </g>
      </g>
    </g>
  </g>
</svg>
