<?xml version="1.0" encoding="UTF-8" standalone="no"?>
<svg
   xmlns:dc="http://purl.org/dc/elements/1.1/"
   xmlns:cc="http://creativecommons.org/ns#"
   xmlns:rdf="http://www.w3.org/1999/02/22-rdf-syntax-ns#"
   xmlns:svg="http://www.w3.org/2000/svg"
   xmlns="http://www.w3.org/2000/svg"
   xmlns:sodipodi="http://sodipodi.sourceforge.net/DTD/sodipodi-0.dtd"
   xmlns:inkscape="http://www.inkscape.org/namespaces/inkscape"
   viewBox="0 0 93.813 76.188"
   id="svg2"
   version="1.1"
   inkscape:version="0.48.4 r9939"
   width="100%"
   height="100%"
   sodipodi:docname="twitter_gray.svg">
  <metadata
     id="metadata10">
    <rdf:RDF>
      <cc:Work
         rdf:about="">
        <dc:format>image/svg+xml</dc:format>
        <dc:type
           rdf:resource="http://purl.org/dc/dcmitype/StillImage" />
        <dc:title></dc:title>
      </cc:Work>
    </rdf:RDF>
  </metadata>
  <defs
     id="defs8" />
  <sodipodi:namedview
     pagecolor="#ffffff"
     bordercolor="#666666"
     borderopacity="1"
     objecttolerance="10"
     gridtolerance="10"
     guidetolerance="10"
     inkscape:pageopacity="0"
     inkscape:pageshadow="2"
     inkscape:window-width="1366"
     inkscape:window-height="656"
     id="namedview6"
     showgrid="false"
     inkscape:zoom="2.9100445"
     inkscape:cx="-4.9827418"
     inkscape:cy="38.094"
     inkscape:window-x="0"
     inkscape:window-y="30"
     inkscape:window-maximized="1"
     inkscape:current-layer="svg2" />
  <path
     stroke-linejoin="bevel"
     d="M31.474,75.177c33.725-0.84,52.142-28.898,52.142-53.28,0-0.813-0.015-1.622-0.054-2.428,3.687-2.64,6.89-5.938,9.42-9.694-3.385,1.49-7.023,2.496-10.84,2.948,3.895-2.32,6.89-5.988,8.297-10.365-3.65,2.147-7.687,3.704-11.984,4.547-3.446-3.642-8.35-5.92-13.778-5.92-10.426,0-18.876,8.39-18.876,18.735,0,1.47,0.167,2.896,0.492,4.27-15.687-0.778-29.593-8.238-38.903-19.57-1.627,2.767-2.557,5.984-2.557,9.417,0,6.5,3.334,12.23,8.397,15.593-3.096-0.096-6.004-0.94-8.55-2.344v0.234c0,9.08,6.506,16.65,15.144,18.37-1.582,0.43-3.252,0.658-4.974,0.658-1.216,0-2.396-0.118-3.554-0.336,2.406,7.444,9.372,12.86,17.636,13.01-6.46,5.024-14.6,8.02-23.44,8.02-1.515,0-3.015-0.088-4.484-0.262v0.013c8.06,5.122,17.576,8.177,27.812,8.384h2.658"
     stroke="#808284"
     stroke-linecap="square"
     stroke-miterlimit="10"
     stroke-width="2"
     fill="#808284"
     id="path4"
     style="fill:#ffffff;stroke:#ffffff;stroke-opacity:1" />
</svg>
